<svg width="38" height="37" viewBox="0 0 38 37" fill="none" xmlns="http://www.w3.org/2000/svg">
<path fill-rule="evenodd" clip-rule="evenodd" d="M26.7604 13.1092C30.201 15.0425 32.5 18.3123 32.5 22.0416C32.5 28.0495 26.6021 32.8333 19.4375 32.8333C12.2729 32.8333 6.375 28.0495 6.375 22.0416C6.375 18.3123 8.674 15.0425 12.1146 13.1092C12.6814 12.7901 12.8762 12.0825 12.55 11.5306C12.2222 10.9771 11.4955 10.7875 10.9271 11.1066C6.73283 13.4638 4 17.4937 4 22.0416C4 29.2227 10.8717 35.1458 19.4375 35.1458C28.0033 35.1458 34.875 29.2227 34.875 22.0416C34.875 17.4937 32.1422 13.4638 27.9479 11.1066C27.3795 10.7875 26.6528 10.9771 26.325 11.5306C25.9988 12.0825 26.1936 12.7901 26.7604 13.1092Z" fill="#D5CED5"/>
<path fill-rule="evenodd" clip-rule="evenodd" d="M19.4375 8.75237C18.0996 8.09562 14.9203 7.08737 10.2621 9.03141C9.94383 9.164 9.70158 9.42454 9.59708 9.74521C9.49258 10.0659 9.53692 10.4143 9.719 10.701C9.719 10.701 10.612 12.1225 12.3584 13.2864C12.1288 13.4837 11.9056 13.7027 11.7108 13.9416C10.9334 14.8944 10.5313 16.1169 11.2453 17.5399C11.4401 17.9268 11.8391 18.175 12.2808 18.1874C12.2808 18.1874 14.6448 18.2321 16.8725 17.3395C17.1163 18.3369 17.6373 19.5024 18.7408 20.281C19.1573 20.5723 19.7178 20.5723 20.1342 20.281C21.2378 19.5024 21.7587 18.3369 22.0025 17.3395C24.2303 18.2321 26.5942 18.1874 26.5942 18.1874C27.0359 18.175 27.4349 17.9268 27.6297 17.5399C28.3438 16.1169 27.9416 14.8944 27.1642 13.9416C26.9694 13.7027 26.7462 13.4837 26.5166 13.2864C28.263 12.1225 29.156 10.701 29.156 10.701C29.3381 10.4143 29.3824 10.0659 29.2779 9.74521C29.1734 9.42454 28.9312 9.164 28.6129 9.03141C23.9548 7.08737 20.7754 8.09562 19.4375 8.75237ZM18.725 11.0186C19.1478 11.327 19.7273 11.327 20.15 11.0186C20.15 11.0186 22.3065 9.55096 26.1429 10.6209C25.584 11.1404 24.7892 11.7232 23.7711 12.0947C23.3183 12.2597 23.0127 12.6759 23 13.1461C22.9873 13.6163 23.2692 14.048 23.7125 14.2361C23.7125 14.2361 24.4187 14.5382 25.0077 15.0717C25.2404 15.2813 25.4779 15.5357 25.5682 15.8363C24.5564 15.7469 22.9478 15.4617 21.7381 14.5675C21.366 14.2931 20.8609 14.2561 20.4508 14.475C20.0392 14.694 19.8001 15.1272 19.8365 15.582C19.8365 15.582 19.96 16.692 19.4375 17.6262C18.915 16.692 19.0385 15.582 19.0385 15.582C19.0749 15.1272 18.8358 14.694 18.4242 14.475C18.0141 14.2561 17.509 14.2931 17.1369 14.5675C15.9273 15.4617 14.3186 15.7469 13.3068 15.8363C13.3971 15.5357 13.6346 15.2813 13.8673 15.0717C14.4563 14.5382 15.1625 14.2361 15.1625 14.2361C15.6058 14.048 15.8877 13.6163 15.875 13.1461C15.8623 12.6759 15.5568 12.2597 15.1039 12.0947C14.0858 11.7232 13.291 11.1404 12.7305 10.6209C16.5685 9.55096 18.725 11.0186 18.725 11.0186Z" fill="#D5CED5"/>
<path fill-rule="evenodd" clip-rule="evenodd" d="M20.5791 9.00543C20.5791 9.00543 19.6687 5.98838 21.8362 3.99655C22.3128 3.55872 22.335 2.82643 21.8837 2.36238C21.4341 1.89834 20.682 1.87676 20.2054 2.31613C17.0292 5.23605 18.2959 9.64059 18.2959 9.64059C18.4764 10.2542 19.1335 10.6103 19.7637 10.4346C20.3938 10.2588 20.7596 9.61901 20.5791 9.00543Z" fill="#D5CED5"/>
</svg>
