<svg width="75" height="72" viewBox="0 0 75 72" fill="none" xmlns="http://www.w3.org/2000/svg">
<g clip-path="url(#clip0_2_2090)">
<path opacity="0.7" d="M4.22743 20.7421C4.22743 20.7421 -0.790971 33.5581 6.26143 46.4631C13.3138 59.3681 27.8398 66.1855 39.466 72.015C51.0922 77.8445 63.1648 75.0054 68.9014 65.4574C74.638 55.9095 66.7702 49.0939 66.7594 35.4787C66.7486 21.8635 68.8204 18.259 61.3594 6.75659C53.8984 -4.74577 35.6086 -7.29295 21.7774 1.23859C7.94623 9.77013 4.22743 20.7421 4.22743 20.7421Z" fill="white"/>
<path d="M3.46422 15.7705C8.27202 6.54298 17.2 -0.438177 28.315 -1.42074C35.9597 -2.07989 43.5786 0.0998613 49.6864 4.69356C52.7212 7.00756 55.4176 9.95346 57.2086 13.3159C59.2642 17.1785 59.8636 21.632 61.9786 25.4768C64.6084 30.2561 69.5476 32.2284 72.865 36.358C75.5956 39.7596 76.5334 44.3181 76.2202 48.6507C75.6478 56.5592 70.9624 64.0672 64.0702 68.1203C58.2436 71.5468 51.22 72.492 44.4502 72.1805C34.0102 71.7017 23.617 68.2965 15.3946 61.9188C7.17222 55.541 1.26282 46.1124 -0.137583 35.872C-1.08978 28.914 0.294417 21.8528 3.46422 15.7705Z" fill="#ECEFF1"/>
<path opacity="0.7" d="M3.46422 15.7705C8.27202 6.54298 17.2 -0.438177 28.315 -1.42074C35.9597 -2.07989 43.5786 0.0998613 49.6864 4.69356C52.7212 7.00756 55.4176 9.95346 57.2086 13.3159C59.2642 17.1785 59.8636 21.632 61.9786 25.4768C64.6084 30.2561 69.5476 32.2284 72.865 36.358C75.5956 39.7596 76.5334 44.3181 76.2202 48.6507C75.6478 56.5592 70.9624 64.0672 64.0702 68.1203C58.2436 71.5468 51.22 72.492 44.4502 72.1805C34.0102 71.7017 23.617 68.2965 15.3946 61.9188C7.17222 55.541 1.26282 46.1124 -0.137583 35.872C-1.08978 28.914 0.294417 21.8528 3.46422 15.7705Z" fill="white"/>
<path d="M0.292603 19.1429C0.505003 19.9759 0.400603 18.4434 0.816403 16.5708C1.2322 14.6982 1.9468 15.4565 1.9468 15.4565" stroke="#263238" stroke-linecap="round" stroke-linejoin="round"/>
<path d="M0.162964 17.2298L1.46796 16.7012" stroke="#263238" stroke-linecap="round" stroke-linejoin="round"/>
<path d="M2.54617 16.0654C2.54617 16.0654 1.76677 17.6674 2.94217 18.3403" stroke="#263238" stroke-linecap="round" stroke-linejoin="round"/>
<path d="M3.65317 15.6172C3.65317 15.6172 4.94197 16.3292 4.13557 17.8564" stroke="#263238" stroke-linecap="round" stroke-linejoin="round"/>
<path d="M2.77112 16.6064L3.69452 17.2722" stroke="#263238" stroke-linecap="round" stroke-linejoin="round"/>
<path d="M3.49475 16.3135L2.77295 17.4509" stroke="#263238" stroke-linecap="round" stroke-linejoin="round"/>
<path d="M7.64145 33.3609C7.8171 32.3025 7.09187 31.3038 6.02161 31.1301C4.95135 30.9564 3.94134 31.6735 3.7657 32.7319C3.59005 33.7903 4.31528 34.7891 5.38554 34.9628C6.4558 35.1364 7.4658 34.4193 7.64145 33.3609Z" stroke="#263238" stroke-linecap="round" stroke-linejoin="round"/>
<path d="M8.80632 35.9159C9.98467 35.6769 10.744 34.5385 10.5023 33.3733C10.2607 32.208 9.10952 31.4571 7.93117 31.6961C6.75282 31.9351 5.99349 33.0734 6.23515 34.2387C6.47682 35.404 7.62797 36.1549 8.80632 35.9159Z" stroke="#263238" stroke-linecap="round" stroke-linejoin="round"/>
<path d="M7.49256 32.2441L6.58896 32.5628" stroke="#263238" stroke-linecap="round" stroke-linejoin="round"/>
<path d="M7.61857 32.6123L6.31897 33.0769" stroke="#263238" stroke-linecap="round" stroke-linejoin="round"/>
<path d="M7.66717 33.0576L6.21637 33.6094" stroke="#263238" stroke-linecap="round" stroke-linejoin="round"/>
<path d="M7.56458 33.665L6.24158 34.2631" stroke="#263238" stroke-linecap="round" stroke-linejoin="round"/>
<path d="M7.33057 34.1309L6.32617 34.5439" stroke="#263238" stroke-linecap="round" stroke-linejoin="round"/>
<path d="M6.65198 30.0868C6.59618 29.9088 5.95898 29.7984 5.93198 30.2648C5.90498 30.7311 6.60338 30.3431 6.80138 30.0868C6.80138 30.0868 6.44137 30.5656 6.59257 30.6599" stroke="#263238" stroke-linecap="round" stroke-linejoin="round"/>
<path d="M10.18 30.6671L9.61478 31.8294C9.61478 31.8294 9.89738 31.2473 10.1998 31.2954C10.5724 31.3613 10.324 31.9647 9.87398 31.7422" stroke="#263238" stroke-linecap="round" stroke-linejoin="round"/>
<path d="M71.6877 49.6454L72.5751 50.4749" stroke="#263238" stroke-linecap="round" stroke-linejoin="round"/>
<path d="M72.5752 49.4287L71.8318 50.527" stroke="#263238" stroke-linecap="round" stroke-linejoin="round"/>
<path d="M73.4482 49.7433L74.3374 49.4158" stroke="#263238" stroke-linecap="round" stroke-linejoin="round"/>
<path d="M74.764 48.5009L75.304 48.9726" stroke="#263238" stroke-linecap="round" stroke-linejoin="round"/>
<path d="M75.7179 47.9326L75.0339 50.2537" stroke="#263238" stroke-linecap="round" stroke-linejoin="round"/>
<path d="M34.2946 36.6066L36.6832 34.9814L39.8458 35.2004L40.0438 39.1662L37.7218 40.8074L34.8562 40.6009L34.2946 36.6066Z" stroke="#263238" stroke-linecap="round" stroke-linejoin="round"/>
<path d="M34.8562 40.6016L37.1692 38.9551L40.0438 39.1669" stroke="#263238" stroke-linecap="round" stroke-linejoin="round"/>
<path d="M37.1691 38.9544L36.6831 34.9814" stroke="#263238" stroke-linecap="round" stroke-linejoin="round"/>
<path d="M34.2946 36.6074L37.45 36.9687L39.8458 35.2012" stroke="#263238" stroke-linecap="round" stroke-linejoin="round"/>
<path d="M37.45 36.9678L37.7218 40.8072" stroke="#263238" stroke-linecap="round" stroke-linejoin="round"/>
<path d="M62.1729 23.2832L61.1145 26.5353L64.4085 26.0956L62.1729 23.2832Z" stroke="#263238" stroke-linecap="round" stroke-linejoin="round"/>
<path d="M62.173 23.2832L62.7616 26.2967" stroke="#263238" stroke-linecap="round" stroke-linejoin="round"/>
<path d="M62.668 25.8144L63.0532 25.7539L63.1432 26.2648" stroke="#263238" stroke-linecap="round" stroke-linejoin="round"/>
<path d="M20.6902 53.043L22.3354 53.8422" stroke="#263238" stroke-linecap="round" stroke-linejoin="round"/>
<path d="M21.8044 52.4326L21.3328 54.1325" stroke="#263238" stroke-linecap="round" stroke-linejoin="round"/>
<path d="M22.033 51.6034C22.0599 51.5758 22.0931 51.5548 22.1298 51.5421C22.1664 51.5295 22.2056 51.5255 22.2441 51.5305C22.2826 51.5355 22.3194 51.5494 22.3515 51.571C22.3836 51.5926 22.4101 51.6214 22.429 51.655C22.5946 51.9113 22.2706 52.4489 22.2706 52.4489L22.9312 52.1997" stroke="#263238" stroke-linecap="round" stroke-linejoin="round"/>
<path d="M33.607 -2.94824C35.1784 -2.07426 33.3784 0.0617378 33.3784 1.30774C33.3784 2.55374 35.1784 2.37574 36.0784 2.73174C36.4384 2.73174 37.1584 2.73174 37.1386 3.63598" stroke="#263238" stroke-linecap="round" stroke-linejoin="round"/>
<path d="M31.8556 -1.81439C32.1292 -0.342332 33.8356 -0.863872 34.8832 -0.527452C36.6832 0.0510477 35.6842 1.88801 35.1478 2.99873C34.8256 3.66089 34.5052 4.59005 35.0812 5.21839" stroke="#263238" stroke-linecap="round" stroke-linejoin="round"/>
<path d="M33.6502 0.387484L34.8418 -0.538116" stroke="#263238" stroke-linecap="round" stroke-linejoin="round"/>
<path d="M33.4036 1.77259L35.7328 0.117188" stroke="#263238" stroke-linecap="round" stroke-linejoin="round"/>
<path d="M34.2964 2.41847L35.92 1.24011" stroke="#263238" stroke-linecap="round" stroke-linejoin="round"/>
<path d="M34.9875 4.92292L37.0161 3.28888" stroke="#263238" stroke-linecap="round" stroke-linejoin="round"/>
<path d="M35.038 3.63803L36.361 2.71777" stroke="#263238" stroke-linecap="round" stroke-linejoin="round"/>
<path d="M8.55112 53.9299C10.4839 53.1654 11.4241 50.9963 10.651 49.0849C9.87794 47.1736 7.6844 46.2439 5.7516 47.0084C3.8188 47.7728 2.87865 49.942 3.65171 51.8533C4.42478 53.7647 6.61832 54.6944 8.55112 53.9299Z" stroke="#263238" stroke-linecap="round" stroke-linejoin="round"/>
<path d="M8.09917 46.8633C9.41317 45.3378 10.531 44.4745 10.9612 44.7558C11.6164 45.1812 10.441 48.0861 8.33677 51.2421C6.23257 54.398 3.99517 56.6123 3.33997 56.1851C2.90797 55.9057 3.27157 54.5493 4.17157 52.7533" stroke="#263238" stroke-linecap="round" stroke-linejoin="round"/>
<path d="M3.46242 51.2346C1.63002 50.713 0.460017 50.1043 0.533817 49.6183C0.640017 48.8494 3.80622 48.6714 7.58802 49.2321C11.3698 49.7928 14.3434 50.8554 14.23 51.6208C14.149 52.1548 12.61 52.3987 10.423 52.3168" stroke="#263238" stroke-linecap="round" stroke-linejoin="round"/>
<path d="M3.94297 48.5347C2.56057 46.0676 1.86937 44.1434 2.33737 43.8426C2.95297 43.4492 5.33257 46.0018 7.65277 49.5386C9.97297 53.0755 11.3536 56.2724 10.7398 56.6675C10.333 56.9274 9.15397 55.8986 7.73017 54.147" stroke="#263238" stroke-linecap="round" stroke-linejoin="round"/>
<path d="M11.4922 46.3681C11.4251 46.4693 11.3291 46.5485 11.2165 46.5958C11.1039 46.6431 10.9796 46.6564 10.8593 46.6339C10.7391 46.6114 10.6283 46.5542 10.5409 46.4695C10.4535 46.3847 10.3935 46.2763 10.3684 46.1579C10.3433 46.0394 10.3542 45.9163 10.3998 45.804C10.4455 45.6917 10.5237 45.5953 10.6247 45.527C10.7256 45.4586 10.8448 45.4214 10.9672 45.42C11.0896 45.4186 11.2096 45.453 11.3122 45.519C11.3805 45.563 11.4393 45.6199 11.4854 45.6864C11.5314 45.7529 11.5637 45.8277 11.5804 45.9066C11.5972 45.9855 11.598 46.0669 11.5828 46.146C11.5677 46.2252 11.5369 46.3007 11.4922 46.3681Z" fill="#263238"/>
<path d="M9.442 55.747C9.37488 55.8482 9.27895 55.9274 9.16632 55.9747C9.05369 56.022 8.9294 56.0353 8.80916 56.0128C8.68893 55.9903 8.57812 55.9331 8.49075 55.8484C8.40337 55.7636 8.34334 55.6552 8.31823 55.5368C8.29312 55.4184 8.30406 55.2952 8.34967 55.1829C8.39528 55.0706 8.47352 54.9742 8.5745 54.9059C8.67548 54.8375 8.79467 54.8003 8.91703 54.7989C9.0394 54.7975 9.15944 54.8319 9.262 54.8979C9.33031 54.9419 9.38918 54.9988 9.43521 55.0653C9.48125 55.1318 9.51356 55.2066 9.53028 55.2855C9.547 55.3644 9.54781 55.4458 9.53266 55.525C9.51752 55.6041 9.48671 55.6796 9.442 55.747Z" fill="#263238"/>
<path d="M6.13356 49.3838C6.06644 49.485 5.97051 49.5642 5.85788 49.6115C5.74524 49.6588 5.62096 49.6721 5.50072 49.6496C5.38049 49.6271 5.26968 49.5699 5.18231 49.4851C5.09493 49.4004 5.0349 49.292 5.00979 49.1736C4.98468 49.0551 4.99562 48.932 5.04123 48.8197C5.08684 48.7074 5.16508 48.611 5.26606 48.5426C5.36703 48.4743 5.48623 48.4371 5.60859 48.4356C5.73096 48.4342 5.851 48.4687 5.95356 48.5347C6.09114 48.6238 6.18736 48.7633 6.22111 48.9224C6.25485 49.0816 6.22337 49.2475 6.13356 49.3838Z" fill="#263238"/>
<path d="M45.6094 22.7407H47.7298L48.79 20.9251L47.7298 19.1095H45.6094L44.5492 20.9251L45.6094 22.7407Z" stroke="#263238" stroke-linecap="round" stroke-linejoin="round"/>
<path d="M45.3016 26.7258L44.2414 24.9102H42.121" stroke="#263238" stroke-linecap="round" stroke-linejoin="round"/>
<path d="M42.4054 20.9251H44.5258L45.586 19.1095L44.5258 17.2921H42.4054L41.3452 19.1095L42.4054 20.9251Z" stroke="#263238" stroke-linecap="round" stroke-linejoin="round"/>
<path d="M45.6094 19.1095H47.7298L48.79 17.2921L47.7298 15.4765H45.6094L44.5492 17.2921L45.6094 19.1095Z" stroke="#263238" stroke-linecap="round" stroke-linejoin="round"/>
<path d="M45.586 19.3908C45.743 19.3908 45.8704 19.2648 45.8704 19.1095C45.8704 18.9542 45.743 18.8283 45.586 18.8283C45.4289 18.8283 45.3016 18.9542 45.3016 19.1095C45.3016 19.2648 45.4289 19.3908 45.586 19.3908Z" fill="#263238"/>
<path d="M41.158 15.578C41.315 15.578 41.4424 15.4521 41.4424 15.2967C41.4424 15.1414 41.315 15.0155 41.158 15.0155C41.0009 15.0155 40.8736 15.1414 40.8736 15.2967C40.8736 15.4521 41.0009 15.578 41.158 15.578Z" fill="#263238"/>
<path d="M45.0172 26.7266C45.0172 26.6709 45.0339 26.6166 45.0651 26.5703C45.0964 26.5241 45.1408 26.488 45.1928 26.4667C45.2447 26.4454 45.3019 26.4399 45.3571 26.4507C45.4123 26.4616 45.4629 26.4884 45.5027 26.5277C45.5425 26.567 45.5696 26.6171 45.5805 26.6717C45.5915 26.7262 45.5859 26.7828 45.5644 26.8342C45.5428 26.8856 45.5064 26.9295 45.4596 26.9604C45.4128 26.9913 45.3579 27.0078 45.3016 27.0078C45.2643 27.0078 45.2273 27.0005 45.1928 26.9864C45.1583 26.9723 45.1269 26.9515 45.1005 26.9254C45.0741 26.8993 45.0532 26.8683 45.0389 26.8342C45.0246 26.8001 45.0172 26.7635 45.0172 26.7266Z" fill="#263238"/>
<path d="M42.121 25.1914C42.278 25.1914 42.4053 25.0655 42.4053 24.9101C42.4053 24.7548 42.278 24.6289 42.121 24.6289C41.9639 24.6289 41.8365 24.7548 41.8365 24.9101C41.8365 25.0655 41.9639 25.1914 42.121 25.1914Z" fill="#263238"/>
<path d="M50.842 17.3437C50.842 17.2877 50.8588 17.2329 50.8903 17.1863C50.9218 17.1397 50.9667 17.1035 51.0191 17.0821C51.0715 17.0607 51.1291 17.0552 51.1847 17.0663C51.2402 17.0774 51.2912 17.1045 51.3312 17.1443C51.3711 17.184 51.3982 17.2346 51.4091 17.2896C51.4199 17.3446 51.414 17.4016 51.3921 17.4533C51.3701 17.505 51.3331 17.549 51.2858 17.5799C51.2385 17.6108 51.183 17.6271 51.1264 17.6268C51.0889 17.6268 51.0517 17.6194 51.0171 17.6052C50.9825 17.5909 50.951 17.5701 50.9246 17.5438C50.8982 17.5175 50.8773 17.4862 50.8631 17.4519C50.8489 17.4176 50.8417 17.3808 50.842 17.3437Z" fill="#263238"/>
<path d="M44.2198 25.1914C44.3769 25.1914 44.5042 25.0655 44.5042 24.9101C44.5042 24.7548 44.3769 24.6289 44.2198 24.6289C44.0628 24.6289 43.9354 24.7548 43.9354 24.9101C43.9354 25.0655 44.0628 25.1914 44.2198 25.1914Z" fill="#263238"/>
<path d="M48.5056 17.3437C48.5056 17.2878 48.5223 17.2331 48.5538 17.1865C48.5852 17.14 48.6299 17.1037 48.6822 17.0823C48.7345 17.0609 48.7921 17.0552 48.8476 17.0662C48.9031 17.0771 48.9541 17.104 48.9941 17.1436C49.0342 17.1832 49.0614 17.2336 49.0725 17.2885C49.0835 17.3434 49.0778 17.4003 49.0562 17.4521C49.0345 17.5038 48.9978 17.548 48.9508 17.5791C48.9037 17.6102 48.8484 17.6268 48.7918 17.6268C48.7158 17.6268 48.6431 17.597 48.5894 17.5439C48.5357 17.4908 48.5056 17.4188 48.5056 17.3437Z" fill="#263238"/>
<path d="M45.3015 22.7428C45.3012 22.6867 45.3177 22.6317 45.349 22.5849C45.3803 22.5381 45.425 22.5015 45.4774 22.4799C45.5297 22.4583 45.5874 22.4525 45.6431 22.4634C45.6988 22.4742 45.75 22.5012 45.7901 22.5409C45.8302 22.5806 45.8575 22.6312 45.8685 22.6862C45.8795 22.7413 45.8737 22.7984 45.8518 22.8502C45.8299 22.9019 45.7929 22.9461 45.7456 22.9771C45.6983 23.008 45.6427 23.0244 45.5859 23.024C45.5106 23.0236 45.4386 22.9938 45.3853 22.9412C45.3321 22.8885 45.302 22.8172 45.3015 22.7428Z" fill="#263238"/>
<path d="M48.7917 17.3398H51.1263" stroke="#263238" stroke-linecap="round" stroke-linejoin="round"/>
<path d="M45.5859 22.7422L44.2197 24.9102" stroke="#263238" stroke-linecap="round" stroke-linejoin="round"/>
<path d="M42.4054 17.2921L41.158 15.2968" stroke="#263238" stroke-linecap="round" stroke-linejoin="round"/>
<path d="M57.4444 10.1348C57.6889 9.3173 58.1987 8.60211 58.895 8.0995C59.5913 7.59689 60.4355 7.33478 61.2973 7.35361C62.1592 7.37244 62.9909 7.67115 63.6641 8.20367C64.3372 8.7362 64.8145 9.47296 65.0224 10.3003" stroke="#263238" stroke-linecap="round" stroke-linejoin="round"/>
<path d="M60.7599 15.0907C59.8022 14.9823 58.9184 14.5292 58.2767 13.8179C57.635 13.1066 57.2805 12.1866 57.2805 11.2334" stroke="#263238" stroke-linecap="round" stroke-linejoin="round"/>
<path d="M65.1358 11.2334C65.1358 12.2627 64.7224 13.2499 63.9866 13.9779C63.2507 14.7059 62.2527 15.1151 61.2118 15.1156" stroke="#263238" stroke-linecap="round" stroke-linejoin="round"/>
<path d="M65.359 8.77127C66.5866 8.61641 67.4092 8.70007 67.537 9.06319C67.7908 9.78587 65.1646 11.3434 61.6708 12.5431C58.177 13.7428 55.1404 14.1273 54.8848 13.4028C54.7498 13.0166 55.4374 12.3918 56.6398 11.71" stroke="#263238" stroke-linecap="round" stroke-linejoin="round"/>
<path d="M44.2197 6.1123L44.5959 6.86524L45.4365 6.98628L44.8281 7.57368L44.9721 8.40138L44.2197 8.00978L43.4673 8.40138L43.6113 7.57368L43.0029 6.98628L43.8435 6.86524L44.2197 6.1123Z" stroke="#263238" stroke-linecap="round" stroke-linejoin="round"/>
<path d="M17.6445 4.10627C17.6441 4.7757 17.375 5.41761 16.8965 5.89114C16.418 6.36467 15.7691 6.63115 15.0921 6.63209C15.0093 6.63209 14.9283 6.62853 14.8491 6.62141C14.3565 6.5752 13.888 6.38846 13.5007 6.08389C13.1133 5.77932 12.8238 5.37004 12.6673 4.9058C12.5107 4.44156 12.494 3.94235 12.619 3.46885C12.744 2.99535 13.0054 2.56796 13.3714 2.23863C13.7374 1.90929 14.1923 1.6922 14.6808 1.61374C15.1693 1.53527 15.6703 1.59881 16.1229 1.79664C16.5755 1.99447 16.9603 2.31806 17.2304 2.72809C17.5005 3.13811 17.6444 3.6169 17.6445 4.10627Z" stroke="#263238" stroke-linecap="round" stroke-linejoin="round"/>
<path d="M17.236 4.56157C17.2363 4.6391 17.2134 4.71499 17.1701 4.77962C17.1268 4.84425 17.0651 4.89472 16.9928 4.92463C16.9204 4.95454 16.8408 4.96255 16.7638 4.94764C16.6869 4.93274 16.6162 4.89558 16.5606 4.84089C16.505 4.78619 16.4671 4.71642 16.4517 4.64041C16.4363 4.5644 16.444 4.48557 16.4739 4.41391C16.5039 4.34225 16.5546 4.28098 16.6198 4.23788C16.6849 4.19477 16.7616 4.17175 16.84 4.17175C16.9447 4.17175 17.0451 4.21276 17.1193 4.28582C17.1936 4.35887 17.2355 4.45802 17.236 4.56157Z" stroke="#263238" stroke-linecap="round" stroke-linejoin="round"/>
<path d="M13.681 5.55447C13.6811 5.64724 13.6605 5.73891 13.6207 5.82291C13.5809 5.90691 13.5228 5.98118 13.4506 6.04041C13.1149 5.76641 12.8564 5.41144 12.7 5.00979C12.799 4.94964 12.9131 4.91819 13.0294 4.91901C13.1145 4.91783 13.199 4.93339 13.278 4.9648C13.357 4.99621 13.4289 5.04283 13.4896 5.10195C13.5502 5.16108 13.5983 5.23153 13.6312 5.30922C13.664 5.3869 13.681 5.47026 13.681 5.55447Z" stroke="#263238" stroke-linecap="round" stroke-linejoin="round"/>
<path d="M16.84 5.95177C16.368 6.39386 15.7423 6.63981 15.0922 6.63885C15.0094 6.63885 14.9284 6.63529 14.8492 6.62817C14.8347 6.55968 14.8274 6.48989 14.8276 6.41991C14.8277 6.18328 14.9086 5.95362 15.0572 5.76816C15.2059 5.58269 15.4135 5.4523 15.6464 5.39812C15.8793 5.34393 16.1239 5.36912 16.3406 5.46961C16.5572 5.57011 16.7332 5.74001 16.84 5.95177Z" stroke="#263238" stroke-linecap="round" stroke-linejoin="round"/>
<path d="M14.473 3.10377C14.7971 3.10377 15.0598 2.84397 15.0598 2.52349C15.0598 2.20301 14.7971 1.94321 14.473 1.94321C14.1489 1.94321 13.8862 2.20301 13.8862 2.52349C13.8862 2.84397 14.1489 3.10377 14.473 3.10377Z" stroke="#263238" stroke-linecap="round" stroke-linejoin="round"/>
<path d="M15.0166 4.1721C15.0166 4.22526 15.0007 4.27723 14.9708 4.32143C14.9409 4.36563 14.8985 4.40008 14.8488 4.42042C14.7992 4.44076 14.7445 4.44609 14.6918 4.43572C14.6391 4.42535 14.5906 4.39975 14.5526 4.36216C14.5146 4.32457 14.4887 4.27668 14.4782 4.22454C14.4678 4.1724 14.4731 4.11836 14.4937 4.06924C14.5143 4.02013 14.5491 3.97815 14.5938 3.94862C14.6385 3.91908 14.6911 3.90332 14.7448 3.90332C14.7805 3.90332 14.8159 3.91027 14.8488 3.92378C14.8818 3.93729 14.9118 3.95709 14.937 3.98204C14.9623 4.007 14.9823 4.03663 14.9959 4.06924C15.0096 4.10185 15.0166 4.1368 15.0166 4.1721Z" stroke="#263238" stroke-linecap="round" stroke-linejoin="round"/>
<path d="M17.164 2.63204C17.0925 2.65521 17.0177 2.66664 16.9426 2.66586C16.8443 2.66586 16.747 2.6467 16.6563 2.60946C16.5655 2.57223 16.4831 2.51766 16.4137 2.44888C16.3443 2.38009 16.2893 2.29845 16.2519 2.20862C16.2145 2.11879 16.1953 2.02254 16.1956 1.92538C16.1937 1.89456 16.1937 1.86365 16.1956 1.83282C16.5811 2.0146 16.9141 2.28945 17.164 2.63204Z" stroke="#263238" stroke-linecap="round" stroke-linejoin="round"/>
<path d="M75.853 33.415L76.1284 32.8027L75.682 32.5606C75.6984 32.4528 75.7014 32.3434 75.691 32.2349L76.1482 32.0142L75.9052 31.3894L75.4156 31.5282C75.3499 31.441 75.2738 31.3621 75.1888 31.2933L75.3562 30.8162L74.737 30.5439L74.4904 30.9853C74.381 30.972 74.2703 30.972 74.161 30.9853L73.9396 30.5332L73.306 30.7735L73.4482 31.2559C73.3598 31.3219 73.2795 31.3977 73.2088 31.4819L72.7282 31.3164L72.46 31.9198L72.9064 32.1637C72.8899 32.2715 72.8869 32.3809 72.8974 32.4894L72.4384 32.7084L72.6814 33.3349L73.171 33.1943C73.237 33.2816 73.3131 33.3611 73.3978 33.431L73.2322 33.9063L73.8514 34.1786L74.0962 33.7372C74.2052 33.7535 74.3158 33.7564 74.4256 33.7461L74.6488 34.2L75.2806 33.9597L75.1402 33.4755C75.2279 33.4102 75.3076 33.3349 75.3778 33.2513L75.853 33.415ZM73.9702 33.0733C73.828 33.0108 73.7078 32.908 73.6248 32.7779C73.5417 32.6479 73.4995 32.4964 73.5035 32.3426C73.5074 32.1888 73.5574 32.0397 73.6471 31.914C73.7368 31.7883 73.8622 31.6918 74.0073 31.6365C74.1525 31.5813 74.311 31.5699 74.4627 31.6037C74.6145 31.6375 74.7527 31.7151 74.8599 31.8265C74.967 31.938 75.0384 32.0784 75.0649 32.23C75.0914 32.3816 75.0719 32.5375 75.0088 32.6781C74.9237 32.8664 74.7666 33.0138 74.572 33.0878C74.3773 33.1619 74.1609 33.1566 73.9702 33.0733Z" stroke="#263238" stroke-linecap="round" stroke-linejoin="round"/>
<path d="M72.5625 36.5571L72.9369 35.7258L72.3321 35.3948C72.3537 35.2486 72.3573 35.1004 72.3429 34.9533L72.9657 34.6543L72.6399 33.8052L71.9757 33.9957C71.887 33.8766 71.7836 33.769 71.6679 33.6753L71.8947 33.0274L71.0469 32.6518L70.7139 33.2499C70.5661 33.2289 70.4163 33.2247 70.2675 33.2374L69.9651 32.6233L69.1047 32.9508L69.2973 33.6059C69.1778 33.6952 69.0691 33.798 68.9733 33.912L68.3199 33.6949L67.9455 34.5261L68.5503 34.8572C68.5288 35.0034 68.5252 35.1516 68.5395 35.2986L67.9167 35.5977L68.2479 36.4467L68.9121 36.2581C69.0014 36.3766 69.1048 36.4842 69.2199 36.5785L68.9931 37.2246L69.8355 37.5948L70.1685 36.995C70.3163 37.0168 70.4662 37.021 70.6149 37.0074L70.9173 37.6215L71.7777 37.2958L71.5851 36.639C71.7047 36.5502 71.8134 36.4481 71.9091 36.3346L72.5625 36.5571ZM70.0065 36.0925C69.8133 36.0074 69.65 35.8675 69.5372 35.6905C69.4244 35.5135 69.3673 35.3074 69.3729 35.0983C69.3786 34.8892 69.4469 34.6865 69.5691 34.5158C69.6914 34.345 69.8621 34.214 70.0596 34.1393C70.2572 34.0645 70.4728 34.0494 70.679 34.0958C70.8853 34.1422 71.073 34.2481 71.2184 34.4C71.3638 34.552 71.4603 34.7431 71.4958 34.9494C71.5313 35.1556 71.5041 35.3676 71.4177 35.5585C71.3606 35.6853 71.2788 35.7997 71.177 35.8952C71.0751 35.9907 70.9552 36.0653 70.8241 36.1149C70.6931 36.1645 70.5534 36.1881 70.4131 36.1842C70.2728 36.1804 70.1346 36.1492 70.0065 36.0925Z" stroke="#263238" stroke-linecap="round" stroke-linejoin="round"/>
<path d="M35.2486 28.6669C35.002 29.1291 34.7235 29.5739 34.4152 29.9984C32.816 32.1971 30.4661 33.7493 27.7996 34.368C25.1332 34.9867 22.3304 34.6302 19.909 33.3643C19.6588 33.2344 19.414 33.0956 19.18 32.9496C18.946 32.8036 18.7174 32.6541 18.4978 32.4939C18.2314 32.3035 17.9758 32.1005 17.731 31.8887C17.7154 31.8771 17.7009 31.864 17.6878 31.8496C16.0927 30.4536 14.9269 28.6421 14.3234 26.622C13.72 24.602 13.7034 22.4548 14.2754 20.4258C14.8474 18.3968 15.985 16.5678 17.5583 15.1479C19.1316 13.7279 21.077 12.7742 23.1724 12.3957C25.2677 12.0172 27.4285 12.2291 29.4078 13.0074C31.3872 13.7856 33.1052 15.0988 34.3656 16.7968C35.6261 18.4947 36.3782 20.5091 36.5359 22.6097C36.6936 24.7103 36.2507 26.8124 35.2576 28.6758L35.2486 28.6669Z" fill="#ECEFF1"/>
<mask id="mask0_2_2090" style="mask-type:luminance" maskUnits="userSpaceOnUse" x="13" y="12" width="24" height="23">
<path d="M35.2486 28.6669C35.002 29.1291 34.7235 29.5739 34.4152 29.9984C32.816 32.1971 30.4661 33.7493 27.7996 34.368C25.1332 34.9867 22.3304 34.6302 19.909 33.3643C19.6588 33.2344 19.414 33.0956 19.18 32.9496C18.946 32.8036 18.7174 32.6541 18.4978 32.4939C18.2314 32.3035 17.9758 32.1005 17.731 31.8887C17.7154 31.8771 17.7009 31.864 17.6878 31.8496C16.0927 30.4536 14.9269 28.6421 14.3234 26.622C13.72 24.602 13.7034 22.4548 14.2754 20.4258C14.8474 18.3968 15.985 16.5678 17.5583 15.1479C19.1316 13.7279 21.077 12.7742 23.1724 12.3957C25.2677 12.0172 27.4285 12.2291 29.4078 13.0074C31.3872 13.7856 33.1052 15.0988 34.3656 16.7968C35.6261 18.4947 36.3782 20.5091 36.5359 22.6097C36.6936 24.7103 36.2507 26.8124 35.2576 28.6758L35.2486 28.6669Z" fill="white"/>
</mask>
<g mask="url(#mask0_2_2090)">
<g opacity="0.6">
<path d="M35.2487 28.6669C35.002 29.1291 34.7235 29.5739 34.4153 29.9984L34.1957 29.8204L33.8177 29.6228L33.4199 29.4163L33.4865 28.941L33.4649 28.5121C33.4415 28.0831 33.7547 28.4337 34.0049 28.3038C34.2 28.1659 34.3577 27.9825 34.4639 27.7698C34.4639 27.7698 34.6439 27.1984 34.5845 26.9688C34.4875 26.7042 34.3733 26.4462 34.2425 26.1963L33.5981 27.0863L33.0581 27.0453L32.5469 26.7783L32.4803 26.0752L32.2175 25.94L32.1077 25.5359L30.6875 25.1425L30.5255 24.8613C30.3635 24.58 29.7101 24.4359 29.7101 24.4359L29.8703 24.0692L30.1223 23.6598C30.3761 23.2504 30.6389 23.9303 30.6389 23.9303L30.9395 24.0852L31.4975 23.6224L31.6451 22.9585L32.5541 23.0101C32.5362 22.9202 32.5501 22.827 32.5934 22.7461C32.6366 22.6651 32.7066 22.6012 32.7917 22.5651C33.0941 22.4476 32.9609 21.7979 32.8457 21.5576C32.7305 21.3173 32.3057 21.5113 32.3057 21.5113C32.3057 21.5113 31.8431 20.8153 31.7801 20.5377C31.7171 20.26 32.6621 20.3597 33.0671 20.0802C33.4721 19.8007 33.3335 19.2454 33.1355 19.2329C32.9375 19.2205 33.5225 17.9691 34.6475 18.3127C34.9607 18.4088 35.1587 18.375 35.2811 18.2682C36.1251 19.8752 36.5631 21.6606 36.5574 23.4715C36.5518 25.2824 36.1027 27.065 35.2487 28.6669Z" fill="white"/>
<path d="M27.3772 23.852L26.992 24.3308C26.992 24.3308 26.8282 23.9446 26.5942 24.1528L26.2342 24.4697L25.9732 25.1924L25.5052 25.4914L25.219 25.3437L24.949 25.2013L24.6556 25.0482L24.3748 25.5822L24.1462 26.0094C24.2577 26.2191 24.3962 26.4136 24.5584 26.5879L25.0552 27.4547L25.66 27.7573C25.9123 27.7666 26.1633 27.7964 26.4106 27.8463L26.8264 28.0617L26.6788 28.9517C26.6788 28.9517 26.3656 29.4555 26.1568 29.3166L25.9462 29.1796L25.6042 30.3508L25.5898 30.9952C25.5898 30.9952 25.3864 31.0788 25.1812 31.1465C24.976 31.2141 25.1056 31.1785 24.6754 31.3102C24.2452 31.4419 24.2794 31.4366 23.9302 31.5345C23.6326 31.6375 23.3461 31.7699 23.0752 31.9297L23.1058 32.5491L22.2832 32.6684L21.8224 32.4263L21.9358 32.0347L21.9898 31.4224L21.9268 30.9649L21.7288 30.5608L22.2832 30.0642L22.1608 29.7527L21.8458 29.1333L21.1798 29.4893L20.8378 29.6673L20.0638 29.3237L19.9792 28.8592L19.72 28.0243L19.4788 27.5046L19.0504 26.9314L18.9424 26.4384L19.1836 25.9862L19.3114 25.7477L18.9172 25.2226L18.8092 24.8488L18.145 24.2525C18.145 24.2525 18.3376 24.2401 18.2944 23.9748C18.2512 23.7096 18.6742 23.2628 18.6742 23.2628C18.9136 23.3874 19.6318 23.8823 19.6318 23.8823L20.26 23.9677C20.26 23.9677 20.386 23.9677 20.5084 23.7328C20.6514 23.5166 20.8193 23.3177 21.0088 23.14C21.0088 23.14 20.719 22.145 20.926 22.0115C21.133 21.878 21.3436 21.2265 21.3436 21.2265L21.5092 20.915C21.5092 20.915 21.1186 20.7459 21.0448 20.5412C20.971 20.3365 20.008 20.6089 20.008 20.6089L19.3438 21.0645L18.82 21.465L18.5932 21.8905C18.5932 21.8905 18.1306 21.3404 18.1288 21.6484C18.0936 21.9641 18.0235 22.2751 17.92 22.5758C17.92 22.5758 18.0154 22.6256 17.8894 22.8641C17.7634 23.1026 17.6266 23.0902 17.3494 23.124C16.9881 23.1276 16.627 23.1032 16.2694 23.051C16.2694 23.051 16.0894 23.7096 16.2136 23.8235L16.336 23.9339C16.336 23.9339 16.1434 24.4127 15.9526 24.313L15.4882 24.071L14.8384 24.3308L14.1184 25.1176L13.9582 25.0856C13.517 22.1587 14.262 19.1779 16.0313 16.7912C17.8005 14.4046 20.451 12.8052 23.4064 12.3408C23.4478 12.5188 23.4928 12.6861 23.4928 12.6861L23.3128 13.5654L23.0824 13.9997L22.8844 14.3717L22.6054 14.8951L23.32 15.5465L23.167 16.3173L22.78 16.5576L22.6684 17.1361L23.3326 18.4195L23.5126 18.9232C23.4015 19.1644 23.3468 19.4272 23.3524 19.6922C23.3524 19.6922 23.4334 20.1728 23.788 20.3632C24.1426 20.5537 24.6088 20.778 24.6088 20.778L24.571 21.49L24.4108 21.668L24.6772 22.4351C25.489 22.7502 25.4116 23.0136 25.489 22.7502L25.5682 22.4885L26.1208 22.291L26.8246 23.1222C26.9065 23.1211 26.9874 23.1405 27.0597 23.1784C27.1321 23.2164 27.1936 23.2717 27.2386 23.3394C27.4438 23.5957 27.7642 23.3732 27.3772 23.852Z" fill="white"/>
<path d="M17.8372 30.0514C17.857 30.3041 17.533 30.621 17.533 30.621L17.7976 30.758L17.8786 31.47L17.6788 31.8474C16.263 30.6106 15.1832 29.0427 14.5378 27.287L14.6818 26.5323L15.3172 26.4433C15.3172 26.4433 15.886 26.0695 16.138 26.1692C16.39 26.2689 16.6204 26.8812 16.6204 26.8812C16.6204 26.8812 16.8004 27.7071 16.777 27.6911H16.7662H16.7806L17.0398 27.8264L17.1136 28.1521L16.7536 28.8285H16.174C16.174 28.8285 16.0588 28.768 16.048 29.0652C16.0574 29.1684 16.0891 29.2684 16.141 29.3583C16.1928 29.4483 16.2636 29.5262 16.3486 29.5868L16.975 29.4284L17.1424 28.7876L17.758 28.6683C17.758 28.6683 17.6698 29.0617 17.8138 29.1364L17.9596 29.213L18.046 29.6829C17.9815 29.7208 17.9283 29.7747 17.8916 29.8394C17.855 29.9041 17.8362 29.9772 17.8372 30.0514Z" fill="white"/>
<path d="M20.8145 31.0592C20.7587 30.9061 20.7353 30.7726 20.3519 30.5733C19.9685 30.3739 19.9919 30.4451 19.8407 30.6107C19.7756 30.6958 19.6866 30.7602 19.5849 30.796C19.4832 30.8317 19.3731 30.8372 19.2683 30.8118C19.0163 30.7566 19.1477 31.0379 19.1477 31.0379L19.2089 31.7979L18.4979 32.4921C18.7175 32.6523 18.9449 32.8042 19.1801 32.9478L19.3313 32.4886L20.5121 32.8303C20.2619 32.7573 20.4095 32.4191 20.4095 32.4191L20.1575 32.2874C20.1575 32.2874 20.8703 31.2087 20.8145 31.0592Z" fill="white"/>
<path d="M28.252 27.1076L27.865 26.7214L27.4222 26.8584L27.2422 27.2144L27.1072 27.4708L27.2872 27.8268L27.6472 28.2593L27.8524 27.8713C27.8524 27.8713 28.423 27.8713 28.7218 27.5455C29.0206 27.2198 28.252 27.1076 28.252 27.1076Z" fill="white"/>
<path d="M27.1144 25.365L27.8344 25.7388L27.8632 25.5715C27.9007 25.4375 27.967 25.313 28.0576 25.2066L27.5068 24.6299L27.1144 25.365Z" fill="white"/>
<path d="M26.8697 33.6509L26.6627 33.3501L26.4215 33.2255H25.6853L25.2659 34.0123C25.2659 34.0123 24.8645 33.9589 24.3371 33.9126C23.8097 33.8663 23.9393 34.0817 23.9393 34.0817L23.8025 34.5765C25.1331 34.7385 26.4822 34.6668 27.7877 34.3647C27.6359 34.2601 27.4785 34.1638 27.3161 34.0763L26.8697 33.6509Z" fill="white"/>
</g>
</g>
<path d="M35.2486 28.6669C35.002 29.1291 34.7235 29.5739 34.4152 29.9984C32.816 32.1971 30.4661 33.7493 27.7996 34.368C25.1332 34.9867 22.3304 34.6302 19.909 33.3643C19.6588 33.2344 19.414 33.0956 19.18 32.9496C18.946 32.8036 18.7174 32.6541 18.4978 32.4939C18.2314 32.3035 17.9758 32.1005 17.731 31.8887C17.7154 31.8771 17.7009 31.864 17.6878 31.8496C16.0927 30.4536 14.9269 28.6421 14.3234 26.622C13.72 24.602 13.7034 22.4548 14.2754 20.4258C14.8474 18.3968 15.985 16.5678 17.5583 15.1479C19.1316 13.7279 21.077 12.7742 23.1724 12.3957C25.2677 12.0172 27.4285 12.2291 29.4078 13.0074C31.3872 13.7856 33.1052 15.0988 34.3656 16.7968C35.6261 18.4947 36.3782 20.5091 36.5359 22.6097C36.6936 24.7103 36.2507 26.8124 35.2576 28.6758L35.2486 28.6669Z" stroke="#263238" stroke-linecap="round" stroke-linejoin="round"/>
<path d="M27.7876 34.3647C26.4822 34.6668 25.1331 34.7385 23.8024 34.5765L23.9392 34.0817C23.9392 34.0817 23.8096 33.8663 24.337 33.9126C24.8644 33.9589 25.2658 34.0123 25.2658 34.0123L25.6852 33.2255H26.4214L26.6626 33.3501L26.8696 33.6509L27.316 34.0763C27.4785 34.1638 27.6359 34.2601 27.7876 34.3647Z" stroke="#263238" stroke-linecap="round" stroke-linejoin="round"/>
<path d="M35.2883 18.2699C35.1659 18.3767 34.9679 18.4106 34.6547 18.3144C33.5297 17.9709 32.9465 19.2205 33.1427 19.2347C33.3389 19.2489 33.4775 19.8114 33.0743 20.082C32.6711 20.3525 31.7243 20.26 31.7873 20.5394C31.8503 20.8189 32.3129 21.5131 32.3129 21.5131C32.3129 21.5131 32.7269 21.3209 32.8439 21.5594C32.9609 21.7979 33.0941 22.4494 32.7917 22.5669C32.7066 22.603 32.6366 22.6669 32.5934 22.7479C32.5501 22.8288 32.5362 22.922 32.5541 23.0119L31.6451 22.9602L31.4975 23.6242L30.9395 24.087L30.6389 23.9321C30.6389 23.9321 30.3761 23.2522 30.1223 23.6616L29.8703 24.071L29.7101 24.4376C29.7101 24.4376 30.3635 24.5818 30.5255 24.8631L30.6875 25.1443L32.1077 25.5377L32.2175 25.9417L32.4803 26.077L32.5469 26.7801L33.0761 27.0542L33.6161 27.0952L34.2605 26.2052C34.3913 26.4551 34.5055 26.7131 34.6025 26.9777C34.6655 27.2073 34.4819 27.7787 34.4819 27.7787C34.3757 27.9914 34.218 28.1748 34.0229 28.3127C33.7655 28.4426 33.4505 28.092 33.4829 28.521L33.5045 28.9499L33.4379 29.4252L33.8357 29.6317L34.2137 29.8293L34.4333 30.0073" stroke="#263238" stroke-linecap="round" stroke-linejoin="round"/>
<path d="M13.9727 25.0856L14.1329 25.1176L14.8529 24.3308L15.5027 24.071L15.9671 24.313C16.1579 24.4127 16.3505 23.9339 16.3505 23.9339L16.2281 23.8235C16.1039 23.7096 16.2839 23.051 16.2839 23.051C16.6414 23.1032 17.0025 23.1276 17.3639 23.124C17.6483 23.0902 17.7833 23.1009 17.9039 22.8641C18.0245 22.6274 17.9345 22.5758 17.9345 22.5758C18.0379 22.2751 18.108 21.9641 18.1433 21.6484C18.1433 21.3404 18.6077 21.8905 18.6077 21.8905L18.8345 21.465L19.3421 21.0663L20.0063 20.6106C20.0063 20.6106 20.9693 20.3365 21.0431 20.543C21.1169 20.7495 21.5075 20.9168 21.5075 20.9168L21.3419 21.2283C21.3419 21.2283 21.1295 21.8762 20.9243 22.0133C20.7191 22.1503 21.0071 23.1418 21.0071 23.1418C20.8176 23.3195 20.6496 23.5184 20.5067 23.7345C20.3807 23.9731 20.2583 23.9695 20.2583 23.9695L19.6301 23.8841C19.6301 23.8841 18.9101 23.3892 18.6725 23.2646C18.6725 23.2646 18.2495 23.7114 18.2927 23.9766C18.3359 24.2418 18.1433 24.2543 18.1433 24.2543L18.8075 24.8506L18.9155 25.2244L19.3097 25.7495L19.1819 25.988L18.9407 26.4401L19.0487 26.9332L19.4771 27.5064L19.7201 28.0243L19.9829 28.8627L20.0675 29.3273L20.8415 29.6708L21.1835 29.4928L21.8495 29.1368L22.1645 29.7563L22.2869 30.0678L21.7325 30.5644L21.9305 30.9685L21.9935 31.4259L21.9395 32.0382L21.8261 32.4298L22.2869 32.6719L23.1095 32.5544L23.0789 31.9332C23.3497 31.7735 23.6362 31.6411 23.9339 31.5381C24.2831 31.4402 24.2489 31.4455 24.6791 31.3138C25.1093 31.1821 24.9779 31.2177 25.1849 31.15C25.3919 31.0824 25.5935 30.9987 25.5935 30.9987L25.6079 30.3544L25.9499 29.1831L26.1605 29.3202C26.3693 29.459 26.6825 28.9553 26.6825 28.9553L26.8301 28.0653L26.4053 27.8463C26.1579 27.7964 25.9069 27.7666 25.6547 27.7573L25.0625 27.4494L24.5657 26.5825C24.4034 26.4082 24.2649 26.2138 24.1535 26.004L24.3821 25.5768L24.6629 25.0428L24.9563 25.1959L25.2263 25.3383L25.5125 25.4861L25.9805 25.187L26.2415 24.4643L26.6015 24.1475C26.8355 23.9375 26.9993 24.3255 26.9993 24.3255L27.3845 23.8467C27.7715 23.3679 27.4511 23.5904 27.2531 23.3447C27.208 23.2771 27.1465 23.2217 27.0742 23.1837C27.0018 23.1458 26.9209 23.1265 26.8391 23.1276L26.1353 22.2963L25.5755 22.5063L25.4963 22.768C25.4189 23.0314 25.4963 22.768 24.6845 22.4529L24.4181 21.6858L24.5783 21.5078L24.6161 20.7958C24.6161 20.7958 24.1499 20.5697 23.7953 20.381C23.4407 20.1923 23.3597 19.71 23.3597 19.71C23.354 19.445 23.4087 19.1822 23.5199 18.941L23.3399 18.4373L22.6757 17.1539L22.7873 16.5754L23.1743 16.3351L23.3273 15.5643L22.6325 14.9129L22.9115 14.3895L23.1095 14.0175L23.3399 13.5832L23.5199 12.7039C23.5199 12.7039 23.4749 12.5401 23.4335 12.3586" stroke="#263238" stroke-linecap="round" stroke-linejoin="round"/>
<path d="M17.74 31.8865C17.726 31.8706 17.7103 31.8562 17.6932 31.8437L17.893 31.4664L17.812 30.7544L17.5474 30.6173C17.5474 30.6173 17.8714 30.3005 17.8516 30.0477C17.8481 29.9723 17.8651 29.8973 17.9009 29.8307C17.9367 29.764 17.9899 29.708 18.055 29.6686L17.9686 29.1987L17.8228 29.1221C17.6788 29.0474 17.767 28.654 17.767 28.654L17.1514 28.7732L16.984 29.414L16.3576 29.5725C16.2726 29.5119 16.2018 29.434 16.15 29.344C16.0981 29.254 16.0664 29.1541 16.057 29.0509C16.0678 28.7537 16.183 28.8142 16.183 28.8142H16.7626L17.1226 28.1378L17.0488 27.812L16.7896 27.6768" stroke="#263238" stroke-linecap="round" stroke-linejoin="round"/>
<path d="M16.7734 27.6772C16.8022 27.6932 16.6168 26.8673 16.6168 26.8673C16.6168 26.8673 16.3864 26.2639 16.1344 26.1553C15.8824 26.0467 15.3136 26.4294 15.3136 26.4294L14.6782 26.5184L14.5342 27.2732" stroke="#263238" stroke-linecap="round" stroke-linejoin="round"/>
<path d="M19.3312 32.4886L19.18 32.9478C18.94 32.803 18.7126 32.6511 18.4978 32.4921L19.2088 31.7979L19.1476 31.0379C19.1476 31.0379 19.0162 30.7566 19.2682 30.8118C19.3731 30.8372 19.4832 30.8317 19.5849 30.796C19.6866 30.7602 19.7755 30.6958 19.8406 30.6107C19.9882 30.4451 19.9702 30.3739 20.3518 30.5733C20.7334 30.7726 20.7586 30.9061 20.8144 31.0592C20.8702 31.2123 20.1574 32.2928 20.1574 32.2928L20.4094 32.4245C20.4094 32.4245 20.2618 32.7627 20.512 32.8357L19.3312 32.4886Z" stroke="#263238" stroke-linecap="round" stroke-linejoin="round"/>
<path d="M27.4223 26.8587L27.8651 26.7217L28.2521 27.1079C28.2521 27.1079 29.0171 27.2058 28.7183 27.5351C28.4195 27.8644 27.8489 27.8609 27.8489 27.8609L27.6401 28.2489L27.2801 27.8164L27.1001 27.4604L27.2351 27.2041L27.4223 26.8587Z" stroke="#263238" stroke-linecap="round" stroke-linejoin="round"/>
<path d="M28.0576 25.2066C27.967 25.313 27.9007 25.4375 27.8632 25.5715L27.8344 25.7388L27.1144 25.365L27.5068 24.6299L28.0576 25.2066Z" stroke="#263238" stroke-linecap="round" stroke-linejoin="round"/>
<path d="M67.1194 67.1927C66.1546 67.9866 58.7224 73.0311 48.1168 72.2176C47.5462 67.4437 45.37 47.8316 47.845 44.7558C47.845 44.7558 53.8498 41.9238 59.3812 43.1129C64.9126 44.3019 67.0654 45.4411 67.4596 46.4272C67.7584 47.173 67.3318 61.0606 67.1194 67.1927Z" fill="#263238"/>
<path d="M59.1976 45.2083C56.0116 47.9371 51.9076 47.3603 51.9976 45.2653C52.012 44.9378 52.3666 44.5319 52.3666 44.5319L52.2424 44.3432L51.7024 43.5369C51.3082 42.9335 50.815 42.1752 50.4712 41.6234C50.1832 41.1535 57.3634 36.7854 57.3634 39.2969C57.3634 42.8356 59.1202 43.5013 59.1202 43.5013C59.7826 43.7648 60.4 44.1813 59.1976 45.2083Z" fill="white" stroke="#263238" stroke-linecap="round" stroke-linejoin="round"/>
<path d="M61.2118 50.6124C61.2118 50.6124 60.5692 52.7911 60.8734 53.4159" stroke="white" stroke-linecap="round" stroke-linejoin="round"/>
<path d="M60.4612 44.2863C60.4612 46.3885 54.1198 48.4479 52.2622 46.3386" stroke="white" stroke-linecap="round" stroke-linejoin="round"/>
<path d="M55.2448 41.8601C55.2448 41.8601 54.82 43.4443 52.84 44.6814C52.7455 44.5211 52.5931 44.4022 52.4134 44.3486C52.3538 44.339 52.293 44.339 52.2334 44.3486L51.6934 43.5422C52.7176 42.8124 55.2448 41.8601 55.2448 41.8601Z" fill="#263238"/>
<path d="M56.134 39.9132C56.134 39.9132 56.1124 41.4761 55.774 41.7947C53.263 44.1763 50.8078 44.365 50.4028 43.7367C47.6758 39.5074 48.3202 38.3967 48.043 37.6722C47.5516 36.4013 46.9486 34.3258 47.215 33.0691C47.809 30.2621 53.155 28.0851 55.9702 30.9082C57.3202 32.2592 57.7468 35.1909 57.4624 37.6331" fill="white"/>
<path d="M56.134 39.9132C56.134 39.9132 56.1124 41.4761 55.774 41.7947C53.263 44.1763 50.8078 44.365 50.4028 43.7367C47.6758 39.5074 48.3202 38.3967 48.043 37.6722C47.5516 36.4013 46.9486 34.3258 47.215 33.0691C47.809 30.2621 53.155 28.0851 55.9702 30.9082C57.3202 32.2592 57.7468 35.1909 57.4624 37.6331" stroke="#263238" stroke-linecap="round" stroke-linejoin="round"/>
<path d="M48.3868 36.365C48.3868 36.365 47.6362 36.0321 47.4742 36.4291" stroke="#263238" stroke-linecap="round" stroke-linejoin="round"/>
<path d="M50.2067 36.3897C50.2067 36.3897 51.7673 35.7436 52.4693 36.5286" stroke="#263238" stroke-linecap="round" stroke-linejoin="round"/>
<path d="M51.94 37.4849C51.9652 37.7163 51.8518 37.9174 51.6844 37.937C51.517 37.9566 51.3622 37.7804 51.337 37.549C51.3118 37.3176 51.4252 37.1147 51.5926 37.0969C51.76 37.0791 51.9076 37.2535 51.94 37.4849Z" fill="#263238"/>
<path d="M48.88 37.5543C48.907 37.7857 48.7918 37.9886 48.6244 38.0064C48.457 38.0242 48.3022 37.8516 48.277 37.6202C48.2518 37.3888 48.3652 37.1859 48.5326 37.1681C48.7 37.1503 48.8512 37.3229 48.88 37.5543Z" fill="#263238"/>
<path d="M48.9556 36.9453C49.1734 37.2924 49.0546 37.8852 48.7666 38.6986C48.4786 39.5121 48.7324 39.8058 49.8376 39.8877" fill="white"/>
<path d="M48.9556 36.9453C49.1734 37.2924 49.0546 37.8852 48.7666 38.6986C48.4786 39.5121 48.7324 39.8058 49.8376 39.8877" stroke="#263238" stroke-linecap="round" stroke-linejoin="round"/>
<path d="M49.8376 41.2963C49.8376 41.2963 51.2776 41.1664 51.9364 40.8086" stroke="#263238" stroke-linecap="round" stroke-linejoin="round"/>
<path d="M58.96 33.2254C58.96 32.168 57.9052 29.9982 56.0548 29.7544C54.991 28.6543 53.4754 28.2503 51.6358 28.6686C47.3842 29.6333 46.09 33.7843 45.9046 34.4714C45.8866 34.5354 45.8776 34.571 45.8776 34.571L47.0152 34.2862L46.5256 35.2314L47.1214 35.6212L46.9846 35.7708L47.6758 36.4294L47.4598 35.2261C47.593 34.45 48.4966 33.3642 48.4966 33.3642C48.1668 33.7869 47.9613 34.2913 47.9026 34.822C48.2626 33.8982 50.4226 33.042 50.4226 33.042C49.7224 33.6045 49.3426 34.7045 49.3426 34.7045C50.0086 33.8929 51.5692 33.3678 52.5682 33.0883C52.9048 33.8911 53.4394 34.7295 54.2026 35.194C54.9226 35.6319 54.8974 36.5362 54.8974 36.5362C55.6721 37.0687 56.2428 37.8437 56.5174 38.7362L57.3886 39.9146C57.3886 39.9146 58.96 38.0082 58.96 33.2254Z" fill="#263238"/>
<path d="M55.2935 36.8392C55.0019 36.2216 56.0603 34.5484 56.8109 34.7548C57.2321 34.8723 57.7829 35.6324 57.8909 36.4298C57.9989 37.2273 57.4283 38.7438 56.8199 39.0731C56.4329 39.2867 56.1143 38.7047 56.1143 38.7047" fill="white"/>
<path d="M55.2935 36.8392C55.0019 36.2216 56.0603 34.5484 56.8109 34.7548C57.2321 34.8723 57.7829 35.6324 57.8909 36.4298C57.9989 37.2273 57.4283 38.7438 56.8199 39.0731C56.4329 39.2867 56.1143 38.7047 56.1143 38.7047" stroke="#263238" stroke-linecap="round" stroke-linejoin="round"/>
<path d="M9.37183 67.0504L29.71 62.3477L72.1324 67.1928L61.21 74.5798L9.37183 67.0504Z" fill="white"/>
<path d="M9.37183 67.0504L29.71 62.3477L72.1324 67.1928" fill="white"/>
<path d="M9.37183 67.0504L29.71 62.3477L72.1324 67.1928" stroke="#263238" stroke-linecap="round" stroke-linejoin="round"/>
<path d="M26.9722 67.9937L35.2054 64.3945L45.6148 64.9268L40.9852 68.841L26.9722 67.9937Z" fill="white" stroke="#263238" stroke-linecap="round" stroke-linejoin="round"/>
<path d="M48.2464 44.5782C45.6058 45.6462 45.037 48.0474 40.5496 57.5366C40.5496 57.5366 38.557 57.9406 37.4896 60.3347C36.4222 62.7288 38.2096 64.6192 40.267 64.5551C40.267 64.5551 41.0932 65.2671 42.787 65.1941C44.4808 65.1212 51.967 53.7932 51.967 53.7932L48.2464 44.5782Z" fill="#263238"/>
<path d="M41.3362 58.0938C42.517 59.1333 43.1956 60.6587 42.8356 62.3497" stroke="white" stroke-linecap="round" stroke-linejoin="round"/>
<path d="M42.4756 58.5939C42.4756 58.5939 43.9264 58.9072 44.1514 60.7442" stroke="white" stroke-linecap="round" stroke-linejoin="round"/>
<path d="M46.72 53.2188C46.0346 51.5463 45.7977 49.7271 46.0324 47.9375" stroke="white" stroke-linecap="round" stroke-linejoin="round"/>
<path d="M46.5149 50.7979C46.4051 51.5455 47.1863 55.5255 47.1809 59.7103" stroke="white" stroke-linecap="round" stroke-linejoin="round"/>
<path d="M66.2536 45.3652C69.5566 47.0064 69.949 52.0563 66.8332 58.094C64.6318 62.3553 61.5934 68.6476 59.671 69.0695C57.7486 69.4914 55.873 68.3076 55.873 68.3076C55.873 68.3076 54.253 68.2329 53.7634 67.0937C52.4242 63.9805 55.828 60.0467 57.16 60.9883C57.16 60.9883 61.4368 51.791 62.2162 51.2108" fill="#263238"/>
<path d="M53.4574 65.2018C53.02 63.0533 56.44 60.5186 57.16 60.9885C57.16 60.9885 59.6998 61.1291 60.0796 62.8664" stroke="white" stroke-linecap="round" stroke-linejoin="round"/>
<path d="M62.7616 65.6588C64.2484 63.0653 66.8332 58.0938 66.8332 58.0938" stroke="white" stroke-linecap="round" stroke-linejoin="round"/>
<path d="M57.16 60.9876C57.16 60.9876 58.9402 59.9339 60.2704 60.9307" stroke="white" stroke-linecap="round" stroke-linejoin="round"/>
<path d="M57.7684 59.7084C57.7684 59.7084 58.7512 57.5724 59.7484 55.6144C60.7456 53.6564 63.028 50.7568 63.9766 50.6162" stroke="white" stroke-linecap="round" stroke-linejoin="round"/>
<path d="M39.0088 63.5477C38.795 63.5373 38.5861 63.4808 38.3968 63.3821C35.3368 61.8033 32.9572 59.1938 31.5244 57.3212C30.9674 56.6055 30.4546 55.8572 29.989 55.0802L30.7234 51.9688C30.7234 51.9688 31.4146 53.7488 34.192 55.4985C36.9694 57.2482 40.2688 57.825 41.3362 59.5925C42.2812 61.1322 40.6162 63.6242 39.0088 63.5477Z" fill="white"/>
<mask id="mask1_2_2090" style="mask-type:luminance" maskUnits="userSpaceOnUse" x="29" y="51" width="13" height="13">
<path d="M39.0088 63.5477C38.795 63.5373 38.5861 63.4808 38.3968 63.3821C35.3368 61.8033 32.9572 59.1938 31.5244 57.3212C30.9674 56.6055 30.4546 55.8572 29.989 55.0802L30.7234 51.9688C30.7234 51.9688 31.4146 53.7488 34.192 55.4985C36.9694 57.2482 40.2688 57.825 41.3362 59.5925C42.2812 61.1322 40.6162 63.6242 39.0088 63.5477Z" fill="white"/>
</mask>
<g mask="url(#mask1_2_2090)">
<path opacity="0.4" d="M39.0088 63.5477C38.9747 63.3226 38.9143 63.1022 38.8288 62.8908C38.1862 61.2995 34.2982 58.1365 34.2982 58.1365C33.373 58.108 32.356 57.7271 31.528 57.3212C30.9697 56.6056 30.4558 55.8572 29.989 55.0802L30.7234 51.9688C30.7234 51.9688 31.4146 53.7488 34.192 55.4985C36.9694 57.2482 40.2688 57.825 41.3362 59.5925C42.2812 61.1322 40.6162 63.6242 39.0088 63.5477Z" fill="#ECEFF1"/>
</g>
<path d="M39.0088 63.5477C38.795 63.5373 38.5861 63.4808 38.3968 63.3821C35.3368 61.8033 32.9572 59.1938 31.5244 57.3212C30.9674 56.6055 30.4546 55.8572 29.989 55.0802L30.7234 51.9688C30.7234 51.9688 31.4146 53.7488 34.192 55.4985C36.9694 57.2482 40.2688 57.825 41.3362 59.5925C42.2812 61.1322 40.6162 63.6242 39.0088 63.5477Z" stroke="#263238" stroke-linecap="round" stroke-linejoin="round"/>
<path d="M32.0788 54.8918C32.0788 54.8918 31.699 56.5507 30.6982 56.1787C30.1582 55.9776 29.1178 54.3827 28.9216 53.5781L32.0788 54.8918Z" fill="white" stroke="#263238" stroke-linecap="round" stroke-linejoin="round"/>
<path d="M27.667 44.6761L28.4842 44.2596C28.4842 44.2596 30.7936 44.2792 32.2264 45.4308C33.5278 46.4775 34.1884 48.1168 34.1884 48.1168C34.1884 48.1168 39.2446 45.3561 44.4088 46.9403L46.5148 58.5476L36.8326 59.1742L30.79 53.4978L27.667 44.6761Z" fill="white" stroke="#263238" stroke-linecap="round" stroke-linejoin="round"/>
<path d="M47.1808 59.0122C47.1808 59.0122 46.045 58.9784 44.5258 59.0282C42.229 59.0994 39.0556 59.3558 37.6048 60.1906L37.5364 60.1674L36.208 59.7082L36.181 59.669C35.9362 59.313 33.9616 56.5095 31.141 55.3686L27.1522 44.3468C27.1522 44.3468 31.2922 44.5248 33.5548 48.2236L34.6906 48.6295C34.6906 48.6295 41.4496 46.6501 45.2332 47.3621L47.1808 59.0122Z" fill="#ECEFF1"/>
<mask id="mask2_2_2090" style="mask-type:luminance" maskUnits="userSpaceOnUse" x="27" y="44" width="21" height="17">
<path d="M47.1808 59.0122C47.1808 59.0122 46.045 58.9784 44.5258 59.0282C42.229 59.0994 39.0556 59.3558 37.6048 60.1906L37.5364 60.1674L36.208 59.7082L36.181 59.669C35.9362 59.313 33.9616 56.5095 31.141 55.3686L27.1522 44.3468C27.1522 44.3468 31.2922 44.5248 33.5548 48.2236L34.6906 48.6295C34.6906 48.6295 41.4496 46.6501 45.2332 47.3621L47.1808 59.0122Z" fill="white"/>
</mask>
<g mask="url(#mask2_2_2090)">
<path opacity="0.3" d="M36.181 59.6709C35.9362 59.3149 33.9616 56.5114 31.141 55.3704L27.1522 44.3486C27.1522 44.3486 31.2922 44.5266 33.5548 48.2255L36.181 59.6709Z" fill="black" fill-opacity="0.7"/>
<path opacity="0.3" d="M44.5258 59.0282C42.229 59.0994 39.0556 59.3557 37.6048 60.1906L37.5364 60.1674L34.8832 49.0282C34.8832 49.0282 37.054 48.5458 37.7218 48.7897C37.72 48.7932 42.1336 52.0132 44.5258 59.0282Z" fill="black" fill-opacity="0.7"/>
</g>
<path d="M47.1808 59.0122C47.1808 59.0122 46.045 58.9784 44.5258 59.0282C42.229 59.0994 39.0556 59.3558 37.6048 60.1906L37.5364 60.1674L36.208 59.7082L36.181 59.669C35.9362 59.313 33.9616 56.5095 31.141 55.3686L27.1522 44.3468C27.1522 44.3468 31.2922 44.5248 33.5548 48.2236L34.6906 48.6295C34.6906 48.6295 41.4496 46.6501 45.2332 47.3621L47.1808 59.0122Z" stroke="#263238" stroke-linecap="round" stroke-linejoin="round"/>
<path d="M34.6942 48.6309L37.2988 59.3162" stroke="#263238" stroke-linecap="round" stroke-linejoin="round"/>
<path d="M36.208 59.7105L33.6772 49.0322" stroke="#263238" stroke-linecap="round" stroke-linejoin="round"/>
<path d="M29.7784 55.0891C29.2006 54.9307 28.036 51.497 28.5688 50.0179C28.5688 50.0179 29.2024 48.9303 29.4688 48.8555C29.872 48.7398 31.4992 48.7736 31.42 49.0442C31.24 49.6708 29.9908 49.6601 29.9908 49.6601L29.5858 50.3934L29.602 50.7975C29.602 50.7975 30.1906 50.3739 30.4066 50.3863C30.5182 50.3863 31.0942 50.6711 31.5514 50.9096C31.942 51.1143 32.1814 51.2265 32.0914 51.4116C31.8016 52.0275 30.5686 51.5896 30.5686 51.5896L30.1042 52.282C30.1042 52.282 30.5524 52.3586 30.7486 52.3799C30.9448 52.4013 32.5738 53.4746 32.5252 53.6081C32.3326 54.1314 30.7882 53.5654 30.7882 53.5654L30.5146 53.7915C30.5146 53.7915 31.6522 54.0816 31.7746 54.1243C31.9546 54.1902 32.6476 54.7171 32.6368 54.7776C32.554 55.2404 31.5982 54.9004 31.5982 54.9004L30.7612 54.8666C30.6337 54.9778 30.4804 55.0561 30.3148 55.0944" fill="white"/>
<path d="M29.7784 55.0891C29.2006 54.9307 28.036 51.497 28.5688 50.0179C28.5688 50.0179 29.2024 48.9303 29.4688 48.8555C29.872 48.7398 31.4992 48.7736 31.42 49.0442C31.24 49.6708 29.9908 49.6601 29.9908 49.6601L29.5858 50.3934L29.602 50.7975C29.602 50.7975 30.1906 50.3739 30.4066 50.3863C30.5182 50.3863 31.0942 50.6711 31.5514 50.9096C31.942 51.1143 32.1814 51.2265 32.0914 51.4116C31.8016 52.0275 30.5686 51.5896 30.5686 51.5896L30.1042 52.282C30.1042 52.282 30.5524 52.3586 30.7486 52.3799C30.9448 52.4013 32.5738 53.4746 32.5252 53.6081C32.3326 54.1314 30.7882 53.5654 30.7882 53.5654L30.5146 53.7915C30.5146 53.7915 31.6522 54.0816 31.7746 54.1243C31.9546 54.1902 32.6476 54.7171 32.6368 54.7776C32.554 55.2404 31.5982 54.9004 31.5982 54.9004L30.7612 54.8666C30.6337 54.9778 30.4804 55.0561 30.3148 55.0944" stroke="#263238" stroke-linecap="round" stroke-linejoin="round"/>
<path d="M29.5948 50.7979C29.5948 50.7979 29.0548 51.2464 28.9162 51.3764C28.7776 51.5063 28.8118 51.9192 28.8118 51.9192" stroke="#263238" stroke-linecap="round" stroke-linejoin="round"/>
<path d="M29.2042 52.8303C29.2042 53.2824 29.5102 53.5565 29.6506 53.7025C29.791 53.8484 29.4256 54.2454 29.8306 54.5302" stroke="#263238" stroke-linecap="round" stroke-linejoin="round"/>
<path d="M55.8659 67.1606C54.7229 67.4685 53.4809 65.482 51.9653 63.314C50.9645 61.89 49.8449 60.3717 48.5579 59.398C48.4553 59.3215 48.3509 59.2467 48.2465 59.1755L48.9989 55.4375C50.5613 56.2474 51.5297 57.545 53.1515 58.8782C55.7615 61.0267 58.0745 62.3457 58.7153 63.2962C59.3561 64.2467 57.8243 66.6319 55.8659 67.1606Z" fill="white"/>
<mask id="mask3_2_2090" style="mask-type:luminance" maskUnits="userSpaceOnUse" x="48" y="55" width="11" height="13">
<path d="M55.8659 67.1606C54.7229 67.4685 53.4809 65.482 51.9653 63.314C50.9645 61.89 49.8449 60.3717 48.5579 59.398C48.4553 59.3215 48.3509 59.2467 48.2465 59.1755L48.9989 55.4375C50.5613 56.2474 51.5297 57.545 53.1515 58.8782C55.7615 61.0267 58.0745 62.3457 58.7153 63.2962C59.3561 64.2467 57.8243 66.6319 55.8659 67.1606Z" fill="white"/>
</mask>
<g mask="url(#mask3_2_2090)">
<path opacity="0.4" d="M51.9653 63.3122C50.9645 61.8882 49.8449 60.3699 48.5579 59.3962C48.7275 59.4048 48.8971 59.3794 49.0565 59.3215C49.0565 59.3215 51.0905 60.9537 51.9653 63.3122Z" fill="#ECEFF1"/>
</g>
<path d="M55.8659 67.1606C54.7229 67.4685 53.4809 65.482 51.9653 63.314C50.9645 61.89 49.8449 60.3717 48.5579 59.398C48.4553 59.3215 48.3509 59.2467 48.2465 59.1755L48.9989 55.4375C50.5613 56.2474 51.5297 57.545 53.1515 58.8782C55.7615 61.0267 58.0745 62.3457 58.7153 63.2962C59.3561 64.2467 57.8243 66.6319 55.8659 67.1606Z" stroke="#263238" stroke-linecap="round" stroke-linejoin="round"/>
<path d="M49.42 59.0282C49.3418 59.1664 49.213 59.2696 49.06 59.3166C49.0194 59.3323 48.9779 59.346 48.9358 59.3575H48.9016C47.6938 59.669 44.9758 59.0211 44.9758 59.0211C44.9758 59.0211 43.1956 58.1845 43.0876 57.9869C43.0124 57.8304 42.9457 57.6699 42.8878 57.5063L42.8392 57.3657C42.8392 57.3657 42.1984 57.0097 42.1192 56.732C42.04 56.4543 41.905 56.376 42.2992 56.3262C42.6934 56.2763 44.8192 56.3262 44.8192 56.3262L42.5062 55.3935C42.5062 55.3935 40.9744 54.6298 40.8322 54.361C40.69 54.0923 40.5118 53.9143 41.2948 54.0211C42.0778 54.1279 43.7878 54.6192 43.7878 54.6192L45.136 54.9022L43.7968 54.3379C43.7968 54.3379 41.1616 54.0229 41.6602 53.213H43.156C44.0034 53.2499 44.8462 53.3559 45.676 53.5298C46.1116 53.6615 48.9916 55.4308 48.9916 55.4308" fill="white"/>
<mask id="mask4_2_2090" style="mask-type:luminance" maskUnits="userSpaceOnUse" x="40" y="53" width="10" height="7">
<path d="M49.42 59.0282C49.3418 59.1664 49.213 59.2696 49.06 59.3166C49.0194 59.3323 48.9779 59.346 48.9358 59.3575H48.9016C47.6938 59.669 44.9758 59.0211 44.9758 59.0211C44.9758 59.0211 43.1956 58.1845 43.0876 57.9869C43.0124 57.8304 42.9457 57.6699 42.8878 57.5063L42.8392 57.3657C42.8392 57.3657 42.1984 57.0097 42.1192 56.732C42.04 56.4543 41.905 56.376 42.2992 56.3262C42.6934 56.2763 44.8192 56.3262 44.8192 56.3262L42.5062 55.3935C42.5062 55.3935 40.9744 54.6298 40.8322 54.361C40.69 54.0923 40.5118 53.9143 41.2948 54.0211C42.0778 54.1279 43.7878 54.6192 43.7878 54.6192L45.136 54.9022L43.7968 54.3379C43.7968 54.3379 41.1616 54.0229 41.6602 53.213H43.156C44.0034 53.2499 44.8462 53.3559 45.676 53.5298C46.1116 53.6615 48.9916 55.4308 48.9916 55.4308" fill="white"/>
</mask>
<g mask="url(#mask4_2_2090)">
<path opacity="0.4" d="M48.898 59.3649C47.6902 59.6764 44.9722 59.0285 44.9722 59.0285C44.9722 59.0285 43.192 58.1919 43.084 57.9943C43.0088 57.8378 42.9421 57.6774 42.8842 57.5137L45.0694 57.7505C44.993 57.8866 44.9529 58.0398 44.9529 58.1955C44.9529 58.3512 44.993 58.5043 45.0694 58.6405C45.3124 59.073 48.0808 59.5109 48.898 59.3649Z" fill="#ECEFF1"/>
</g>
<path d="M49.42 59.0282C49.3418 59.1664 49.213 59.2696 49.06 59.3166C49.0194 59.3323 48.9779 59.346 48.9358 59.3575H48.9016C47.6938 59.669 44.9758 59.0211 44.9758 59.0211C44.9758 59.0211 43.1956 58.1845 43.0876 57.9869C43.0124 57.8304 42.9457 57.6699 42.8878 57.5063L42.8392 57.3657C42.8392 57.3657 42.1984 57.0097 42.1192 56.732C42.04 56.4543 41.905 56.376 42.2992 56.3262C42.6934 56.2763 44.8192 56.3262 44.8192 56.3262L42.5062 55.3935C42.5062 55.3935 40.9744 54.6298 40.8322 54.361C40.69 54.0923 40.5118 53.9143 41.2948 54.0211C42.0778 54.1279 43.7878 54.6192 43.7878 54.6192L45.136 54.9022L43.7968 54.3379C43.7968 54.3379 41.1616 54.0229 41.6602 53.213H43.156C44.0034 53.2499 44.8462 53.3559 45.676 53.5298C46.1116 53.6615 48.9916 55.4308 48.9916 55.4308" stroke="#263238" stroke-linecap="round" stroke-linejoin="round"/>
<path d="M42.8356 57.3729L45.4654 57.7556" stroke="#263238" stroke-linecap="round" stroke-linejoin="round"/>
<path d="M16.6205 65.337L23.2121 67.295L35.2721 64.5734C35.2721 64.5734 27.9065 62.505 27.8381 62.5566C27.7697 62.6082 16.6205 65.337 16.6205 65.337Z" fill="#ECEFF1"/>
<mask id="mask5_2_2090" style="mask-type:luminance" maskUnits="userSpaceOnUse" x="16" y="62" width="20" height="6">
<path d="M16.6205 65.337L23.2121 67.295L35.2721 64.5734C35.2721 64.5734 27.9065 62.505 27.8381 62.5566C27.7697 62.6082 16.6205 65.337 16.6205 65.337Z" fill="white"/>
</mask>
<g mask="url(#mask5_2_2090)">
<path opacity="0.3" d="M16.6205 65.337L23.2121 67.295L35.2721 64.5734C35.2721 64.5734 27.9065 62.505 27.8381 62.5566C27.7697 62.6082 16.6205 65.337 16.6205 65.337Z" fill="black" fill-opacity="0.7"/>
</g>
<path d="M16.6205 65.337L23.2121 67.295L35.2721 64.5734C35.2721 64.5734 27.9065 62.505 27.8381 62.5566C27.7697 62.6082 16.6205 65.337 16.6205 65.337Z" stroke="#263238" stroke-linecap="round" stroke-linejoin="round"/>
<path d="M16.7158 63.0404C16.2532 63.0724 16.138 64.7207 16.6204 65.3366L27.2692 63.1507L28.1224 61.1536L16.7158 63.0404Z" fill="#ECEFF1"/>
<mask id="mask6_2_2090" style="mask-type:luminance" maskUnits="userSpaceOnUse" x="16" y="61" width="13" height="5">
<path d="M16.7158 63.0404C16.2532 63.0724 16.138 64.7207 16.6204 65.3366L27.2692 63.1507L28.1224 61.1536L16.7158 63.0404Z" fill="white"/>
</mask>
<g mask="url(#mask6_2_2090)">
<path opacity="0.3" d="M16.7158 63.0404C16.2532 63.0724 16.138 64.7207 16.6204 65.3366L27.2692 63.1507L28.1224 61.1536L16.7158 63.0404Z" fill="black" fill-opacity="0.7"/>
</g>
<path d="M16.7158 63.0404C16.2532 63.0724 16.138 64.7207 16.6204 65.3366L27.2692 63.1507L28.1224 61.1536L16.7158 63.0404Z" stroke="#263238" stroke-linecap="round" stroke-linejoin="round"/>
<path d="M34.7554 63.0172C34.7554 63.0172 34.597 63.8841 34.6996 64.4181L23.1994 66.9919L17.137 65.2262C17.137 65.2262 16.507 64.1244 17.056 63.2682L28.1332 61.4081L34.7554 63.0172Z" fill="white" stroke="#263238" stroke-linecap="round" stroke-linejoin="round"/>
<path d="M16.7158 63.0404L28.1224 61.1536L35.2054 62.9282L23.293 65.276L16.7158 63.0404Z" fill="#ECEFF1" stroke="#263238" stroke-linecap="round" stroke-linejoin="round"/>
<path d="M17.1208 64.0941L23.1526 65.8706L33.0256 63.9055" stroke="#263238" stroke-linecap="round" stroke-linejoin="round"/>
<path d="M34.6672 64.087L24.0508 66.3262" stroke="#263238" stroke-linecap="round" stroke-linejoin="round"/>
<path d="M17.2631 64.7939C17.3549 64.8028 21.8099 66.1592 21.8099 66.1592" stroke="#263238" stroke-linecap="round" stroke-linejoin="round"/>
<path d="M33.7997 63.6763L34.6439 63.541" stroke="#263238" stroke-linecap="round" stroke-linejoin="round"/>
<path d="M22.9564 66.4882L22.5082 66.3885" stroke="#263238" stroke-linecap="round" stroke-linejoin="round"/>
<path d="M17.056 63.2686C17.292 63.5375 17.4286 63.8777 17.4433 64.2335C17.4581 64.5893 17.35 64.9395 17.137 65.2266C16.9398 64.9403 16.8277 64.6051 16.8133 64.259C16.799 63.9129 16.8831 63.5698 17.056 63.2686Z" fill="#263238"/>
<mask id="mask7_2_2090" style="mask-type:luminance" maskUnits="userSpaceOnUse" x="16" y="63" width="2" height="3">
<path d="M17.056 63.2686C17.292 63.5375 17.4286 63.8777 17.4433 64.2335C17.4581 64.5893 17.35 64.9395 17.137 65.2266C16.9398 64.9403 16.8277 64.6051 16.8133 64.259C16.799 63.9129 16.8831 63.5698 17.056 63.2686Z" fill="white"/>
</mask>
<g mask="url(#mask7_2_2090)">
<path opacity="0.3" d="M17.056 63.2686C17.292 63.5375 17.4286 63.8777 17.4433 64.2335C17.4581 64.5893 17.35 64.9395 17.137 65.2266C16.9398 64.9403 16.8277 64.6051 16.8133 64.259C16.799 63.9129 16.8831 63.5698 17.056 63.2686Z" fill="white" fill-opacity="0.7"/>
</g>
<path d="M17.056 63.2686C17.292 63.5375 17.4286 63.8777 17.4433 64.2335C17.4581 64.5893 17.35 64.9395 17.137 65.2266C16.9398 64.9403 16.8277 64.6051 16.8133 64.259C16.799 63.9129 16.8831 63.5698 17.056 63.2686Z" stroke="#263238" stroke-linecap="round" stroke-linejoin="round"/>
<path d="M41.6926 65.8701L53.2036 66.3365L52.0822 70.2543L37.9216 69.7203L41.6926 65.8701Z" fill="white"/>
<mask id="mask8_2_2090" style="mask-type:luminance" maskUnits="userSpaceOnUse" x="37" y="65" width="17" height="6">
<path d="M41.6926 65.8701L53.2036 66.3365L52.0822 70.2543L37.9216 69.7203L41.6926 65.8701Z" fill="white"/>
</mask>
<g mask="url(#mask8_2_2090)">
<path opacity="0.4" d="M41.6926 65.8701L53.2036 66.3365L52.0822 70.2543L37.9216 69.7203L41.6926 65.8701Z" fill="#ECEFF1"/>
</g>
<path d="M41.6926 65.8701L53.2036 66.3365L52.0822 70.2543L37.9216 69.7203L41.6926 65.8701Z" stroke="#263238" stroke-linecap="round" stroke-linejoin="round"/>
</g>
<defs>
<clipPath id="clip0_2_2090">
<rect width="75" height="72" fill="white"/>
</clipPath>
</defs>
</svg>
