<svg width="22" height="22" viewBox="0 0 22 22" fill="none" xmlns="http://www.w3.org/2000/svg">
<path fill-rule="evenodd" clip-rule="evenodd" d="M22 11.2501C22 10.4701 21.9286 9.72007 21.7959 9.00007H11.2245V13.2551H17.2653C17.0051 14.6301 16.2143 15.7951 15.0255 16.5751V19.3351H18.6531C20.7755 17.4201 22 14.6001 22 11.2501Z" fill="#4285F4"/>
<path fill-rule="evenodd" clip-rule="evenodd" d="M11.2245 22C14.2551 22 16.7959 21.0151 18.6531 19.3351L15.0255 16.5751C14.0204 17.2351 12.7347 17.625 11.2245 17.625C8.30103 17.625 5.82654 15.69 4.94389 13.09H1.19388V15.94C3.04082 19.535 6.83674 22 11.2245 22Z" fill="#34A853"/>
<path fill-rule="evenodd" clip-rule="evenodd" d="M4.94389 13.09C4.7194 12.43 4.59184 11.7251 4.59184 11.0001C4.59184 10.2751 4.71939 9.57006 4.94388 8.91006V6.06006H1.19388C0.433674 7.54506 0 9.22506 0 11.0001C0 12.7751 0.433679 14.455 1.19388 15.94L4.94389 13.09Z" fill="#FBBC05"/>
<path fill-rule="evenodd" clip-rule="evenodd" d="M11.2245 4.375C12.8725 4.375 14.3521 4.93 15.5153 6.02L18.7347 2.865C16.7908 1.09 14.25 0 11.2245 0C6.83674 0 3.04082 2.46506 1.19388 6.06006L4.94388 8.91006C5.82653 6.31006 8.30103 4.375 11.2245 4.375Z" fill="#EA4335"/>
</svg>
