<svg width="100" height="100" viewBox="0 0 100 100" fill="none" xmlns="http://www.w3.org/2000/svg">
<path d="M66.916 23.89C66.916 23.89 56.49 18.058 44.528 22.49C32.566 26.922 24.942 38.45 18.528 47.632C12.114 56.814 13.09 67.432 20.614 73.48C28.138 79.528 34.958 73.66 46.68 75.312C58.402 76.964 61.2561 79.164 72.0581 74.222C82.8601 69.28 87.258 54.022 81.59 41.222C75.9221 28.422 66.916 23.89 66.916 23.89Z" fill="white"/>
<path opacity="0.8" d="M66.916 23.89C66.916 23.89 56.49 18.058 44.528 22.49C32.566 26.922 24.942 38.45 18.528 47.632C12.114 56.814 13.09 67.432 20.614 73.48C28.138 79.528 34.958 73.66 46.68 75.312C58.402 76.964 61.2561 79.164 72.0581 74.222C82.8601 69.28 87.258 54.022 81.59 41.222C75.9221 28.422 66.916 23.89 66.916 23.89Z" fill="white"/>
<path d="M43.4 58.506C43.4 58.506 43.562 53.878 43.4 53.306C43.238 52.734 38.772 48.76 38.772 48.76C38.772 48.76 37.554 40.478 35.444 38.61L18.23 40.722C18.23 40.722 17.012 41.86 17.094 45.522C17.176 49.184 17.338 50.88 16.444 52.504C15.55 54.128 14.658 58.92 16.364 61.356C18.07 63.792 18.636 64.356 20.18 64.278C21.724 64.2 43.4 58.506 43.4 58.506Z" fill="white"/>
<path opacity="0.7" d="M43.4 58.506C43.4 58.506 43.562 53.878 43.4 53.306C43.238 52.734 38.772 48.76 38.772 48.76C38.772 48.76 37.554 40.478 35.444 38.61L18.23 40.722C18.23 40.722 17.012 41.86 17.094 45.522C17.176 49.184 17.338 50.88 16.444 52.504C15.55 54.128 14.658 58.92 16.364 61.356C18.07 63.792 18.636 64.356 20.18 64.278C21.724 64.2 43.4 58.506 43.4 58.506Z" fill="white"/>
<path d="M43.4 53.308L15.146 58.83C15.146 58.83 15.714 65.002 19.612 64.43C23.51 63.858 43.564 59.316 43.484 58.91C43.404 58.504 43.4 53.308 43.4 53.308Z" fill="white"/>
<path opacity="0.5" d="M43.4 53.308L15.146 58.83C15.146 58.83 15.714 65.002 19.612 64.43C23.51 63.858 43.564 59.316 43.484 58.91C43.404 58.504 43.4 53.308 43.4 53.308Z" fill="white"/>
<path d="M72.426 41.442C72.426 41.442 71.8 58.586 72.426 58.854C73.052 59.122 79.39 57.254 79.658 56.8C79.926 56.346 81.086 39.658 79.658 39.658C78.23 39.658 72.426 41.442 72.426 41.442Z" fill="white"/>
<path d="M71.8 41.532C72.336 41.89 71.89 57.782 70.818 59.032C69.746 60.282 61.442 61.89 61.264 60.996C61.086 60.102 61.354 37.872 61.354 37.872C61.354 37.872 71.264 41.176 71.8 41.532ZM79.658 39.658C79.658 39.658 70.908 35.818 69.478 35.908C68.048 35.998 60.372 37.246 61.354 38.318C62.336 39.39 71.086 41.354 72.426 41.442C73.766 41.53 79.658 39.658 79.658 39.658Z" fill="white"/>
<path opacity="0.5" d="M72.426 41.442C72.426 41.442 71.8 58.586 72.426 58.854C73.052 59.122 79.39 57.254 79.658 56.8C79.926 56.346 81.086 39.658 79.658 39.658C78.23 39.658 72.426 41.442 72.426 41.442Z" fill="white"/>
<path opacity="0.7" d="M71.8 41.532C72.336 41.89 71.89 57.782 70.818 59.032C69.746 60.282 61.442 61.89 61.264 60.996C61.086 60.102 61.354 37.872 61.354 37.872C61.354 37.872 71.264 41.176 71.8 41.532ZM79.658 39.658C79.658 39.658 70.908 35.818 69.478 35.908C68.048 35.998 60.372 37.246 61.354 38.318C62.336 39.39 71.086 41.354 72.426 41.442C73.766 41.53 79.658 39.658 79.658 39.658Z" fill="white"/>
<path d="M19.0801 40.6C19.0801 40.6 30.0001 38.8 35.6001 38.6C37.6001 40.6 38.1701 45.948 38.6701 48.548C38.6701 48.548 43.4001 53.028 43.4001 53.4C43.4001 53.772 43.5341 59.4 43.5341 59.4" stroke="#263238" stroke-linecap="round" stroke-linejoin="round"/>
<path d="M39.9341 22.334V49.666" stroke="#263238" stroke-linecap="round" stroke-linejoin="round"/>
<path d="M16.698 52.304L29.332 50.25L38.448 48.548" stroke="#263238" stroke-linecap="round" stroke-linejoin="round"/>
<path d="M15.056 58.72L42.236 53.524" stroke="#263238" stroke-linecap="round" stroke-linejoin="round"/>
<path d="M24.2001 51.1C24.2001 51.1 28.6001 55.5 28.5001 56.1L28.3001 62.4" stroke="#263238" stroke-linecap="round" stroke-linejoin="round"/>
<path d="M19.0381 64.542L41.9381 59.54" stroke="#263238" stroke-linecap="round" stroke-linejoin="round"/>
<path d="M61.5 49.7V38L71.7 41.5V57.5" stroke="#263238" stroke-linecap="round" stroke-linejoin="round"/>
<path d="M61.4 50.734V61.8" stroke="#263238" stroke-linecap="round" stroke-linejoin="round"/>
<path d="M71.7001 41.5L79.9001 39.5V56" stroke="#263238" stroke-linecap="round" stroke-linejoin="round"/>
<path d="M61.5 38L70.3 36.1L79.9 39.5L71.7 41.5L61.5 38Z" stroke="#263238" stroke-linecap="round" stroke-linejoin="round"/>
<path d="M66.3 39.7V59.934" stroke="#263238" stroke-linecap="round" stroke-linejoin="round"/>
<path d="M67.514 49.084C67.514 49.456 67.35 49.758 67.15 49.758C66.95 49.758 66.786 49.456 66.786 49.084C66.786 48.712 66.948 48.41 67.15 48.41C67.352 48.41 67.514 48.712 67.514 49.084Z" fill="#263238"/>
<path d="M65.8 48.46C65.8 48.834 65.638 49.136 65.436 49.136C65.234 49.136 65.074 48.834 65.074 48.46C65.074 48.086 65.236 47.786 65.436 47.786C65.636 47.786 65.8 48.088 65.8 48.46Z" fill="#263238"/>
<path d="M43.5341 54.866L58.0661 62.2" stroke="#263238" stroke-linecap="round" stroke-linejoin="round"/>
<path d="M72.0181 31.126C71.7308 31.4596 71.5369 31.8633 71.4561 32.296L70.3261 32.93V29.93L70.3481 29.96L72.1481 28.644C72.7953 28.7422 73.457 28.6396 74.0441 28.35C74.9681 27.852 75.6441 26.15 75.6441 26.15C75.6441 26.15 73.4441 25.902 72.6961 26.826C72.2872 27.3052 72.0693 27.9183 72.0841 28.548L70.3281 29.834V27.624C70.6573 27.4717 70.9482 27.2477 71.1797 26.9684C71.4112 26.6892 71.5774 26.3617 71.6661 26.01C71.9861 24.768 70.2801 22.316 70.2801 22.316C70.2801 22.316 68.5041 24.838 68.8601 26.116C68.9429 26.4594 69.1095 26.7769 69.3451 27.0401C69.5807 27.3032 69.8779 27.5039 70.2101 27.624V32.424L68.9421 31.368C68.969 31.0336 68.9249 30.6973 68.8125 30.3812C68.7001 30.0651 68.5221 29.7764 68.2901 29.534C67.4381 28.574 65.1641 28.646 65.1641 28.646C65.1641 28.646 66.1241 30.564 66.9401 31.204C67.6541 31.762 68.6401 31.534 68.8781 31.468L70.2101 32.578V34.036H68.2301L69.0301 39.086H71.4601L72.2601 34.036H70.3181V33.072L71.5601 32.376C72.2043 32.5612 72.8935 32.5109 73.5041 32.234C74.5041 31.736 75.3141 30.67 75.3141 30.67C75.3141 30.67 72.9421 30.06 72.0181 31.126Z" fill="#263238"/>
<path d="M54.962 69.6L46.232 72.156C46.1902 72.1684 46.1524 72.1919 46.123 72.2241C46.0935 72.2563 46.0733 72.2959 46.0647 72.3387C46.056 72.3815 46.0592 72.4258 46.0739 72.467C46.0886 72.5081 46.1142 72.5444 46.148 72.572L49.4 75.232C49.59 75.388 49.8162 75.4937 50.0577 75.5391C50.2993 75.5845 50.5484 75.5683 50.782 75.492L58.782 72.876C58.8206 72.8622 58.855 72.8387 58.8819 72.8078C58.9088 72.7769 58.9273 72.7396 58.9358 72.6995C58.9442 72.6594 58.9422 72.6178 58.93 72.5787C58.9178 72.5396 58.8958 72.5042 58.866 72.476L55.8 69.776C55.6864 69.6786 55.5501 69.6114 55.4036 69.5806C55.2571 69.5499 55.1052 69.5565 54.962 69.6Z" fill="#263238"/>
<path d="M50.71 69.744C50.4756 69.8412 50.2661 69.99 50.0972 70.1794C49.9283 70.3688 49.8044 70.5939 49.7346 70.8378C49.6648 71.0818 49.651 71.3384 49.6941 71.5884C49.7373 71.8385 49.8364 72.0756 49.984 72.282L50 72.306C50.588 73.07 53.526 73.48 54.876 73.128C56.226 72.776 56.428 71.806 55.58 71.072C55.062 70.624 53.18 69.604 51.762 69.546C51.4007 69.5296 51.0406 69.5974 50.71 69.744Z" fill="white" stroke="#263238" stroke-linecap="round" stroke-linejoin="round"/>
<path d="M64 73.9L57.6401 68.346C57.5684 68.2835 57.5149 68.2028 57.4852 68.1125C57.4555 68.0222 57.4506 67.9256 57.471 67.8327C57.4915 67.7399 57.5365 67.6543 57.6015 67.5848C57.6664 67.5154 57.7488 67.4647 57.8401 67.438L70.736 63.864C71.0313 63.7823 71.342 63.7732 71.6415 63.8377C71.941 63.9021 72.2205 64.0381 72.456 64.234L78.7 69.4L64 73.9Z" fill="white" stroke="#263238" stroke-linecap="round" stroke-linejoin="round"/>
<path d="M70.8301 68.774L71.3341 69.214L72.4261 68.928L71.9161 68.482L70.8301 68.774Z" fill="#263238"/>
<path d="M68.464 66.704L69.562 66.422L69.072 65.992L67.978 66.278L68.464 66.704Z" fill="#263238"/>
<path d="M69.306 65.932L69.798 66.362L70.896 66.082L70.4 65.648L69.306 65.932Z" fill="#263238"/>
<path d="M71.3141 66.182L71.8401 66.642L72.8321 66.388L72.2841 65.934L71.3141 66.182Z" fill="#263238"/>
<path d="M72.024 66.802L72.55 67.264L73.572 67.002L73.022 66.546L72.024 66.802Z" fill="#263238"/>
<path d="M74.5121 67.784L73.4661 68.064L73.9841 68.518L75.0561 68.236L74.5121 67.784Z" fill="#263238"/>
<path d="M73.2341 68.128L72.1481 68.42L72.6581 68.866L73.7501 68.578L73.2341 68.128Z" fill="#263238"/>
<path d="M72.7321 67.424L73.2861 67.906L74.3241 67.628L73.7621 67.16L72.7321 67.424Z" fill="#263238"/>
<path d="M70.508 66.984L71.606 66.702L71.078 66.242L69.98 66.522L70.508 66.984Z" fill="#263238"/>
<path d="M66.464 69.742L65.832 69.188L64.734 69.468L65.38 70.034L66.464 69.742Z" fill="#263238"/>
<path d="M65.65 69.028L65.122 68.566L64.024 68.848L64.55 69.308L65.65 69.028Z" fill="#263238"/>
<path d="M64.9401 68.408L64.4121 67.946L63.3141 68.226L63.8421 68.688L64.9401 68.408Z" fill="#263238"/>
<path d="M67.132 67.044L68.23 66.764L67.744 66.338L66.65 66.624L67.132 67.044Z" fill="#263238"/>
<path d="M67.1281 70.322L66.6461 69.9L65.5601 70.192L66.0361 70.608L67.1281 70.322Z" fill="#263238"/>
<path d="M65.798 67.386L66.896 67.104L66.416 66.684L65.322 66.968L65.798 67.386Z" fill="#263238"/>
<path d="M64.464 67.726L65.564 67.446L65.088 67.03L63.994 67.314L64.464 67.726Z" fill="#263238"/>
<path d="M63.132 68.066L64.23 67.786L63.76 67.376L62.666 67.66L63.132 68.066Z" fill="#263238"/>
<path d="M68.734 68.446L69.332 68.97L70.418 68.678L69.832 68.164L68.734 68.446Z" fill="#263238"/>
<path d="M68.6481 66.864L69.1741 67.324L70.2721 67.044L69.7461 66.582L68.6481 66.864Z" fill="#263238"/>
<path d="M72.608 69.086L71.516 69.374L72.074 69.862L73.158 69.568L72.608 69.086Z" fill="#263238"/>
<path d="M69.8841 67.946L70.9821 67.664L70.4541 67.204L69.3561 67.484L69.8841 67.946Z" fill="#263238"/>
<path d="M67.8401 67.666L68.9401 67.384L68.4121 66.924L67.3141 67.204L67.8401 67.666Z" fill="#263238"/>
<path d="M70.6901 67.144L71.2161 67.604L72.3161 67.324L71.7881 66.862L70.6901 67.144Z" fill="#263238"/>
<path d="M67.894 70.992L67.31 70.48L66.218 70.768L66.81 71.286L67.894 70.992Z" fill="#263238"/>
<path d="M71.164 67.824L70.066 68.104L70.65 68.616L71.736 68.324L71.164 67.824Z" fill="#263238"/>
<path d="M72.498 67.484L71.4 67.764L71.968 68.262L73.054 67.97L72.498 67.484Z" fill="#263238"/>
<path d="M66.508 68.006L67.606 67.726L67.078 67.264L65.98 67.546L66.508 68.006Z" fill="#263238"/>
<path d="M69.958 69.784L68.866 70.07L69.442 70.574L70.526 70.28L69.958 69.784Z" fill="#263238"/>
<path d="M71.282 69.434L70.192 69.722L70.758 70.218L71.842 69.924L71.282 69.434Z" fill="#263238"/>
<path d="M65.1741 68.348L66.2721 68.066L65.7461 67.604L64.6481 67.886L65.1741 68.348Z" fill="#263238"/>
<path d="M69.21 70.636L68.634 70.132L67.542 70.42L68.126 70.93L69.21 70.636Z" fill="#263238"/>
<path d="M70.5981 68.836L69.5121 69.128L70.0101 69.562L71.1001 69.276L70.5981 68.836Z" fill="#263238"/>
<path d="M66.982 68.688L66.456 68.226L65.358 68.506L65.884 68.968L66.982 68.688Z" fill="#263238"/>
<path d="M67.782 69.388L67.164 68.846L66.066 69.128L66.696 69.68L67.782 69.388Z" fill="#263238"/>
<path d="M68.4521 69.974L67.9641 69.546L66.8781 69.838L67.36 70.26L68.4521 69.974Z" fill="#263238"/>
<path d="M63.2181 69.65L62.9821 69.71L63.1661 69.87L63.4001 69.81L63.2181 69.65Z" fill="#263238"/>
<path d="M65.148 70.096L64.498 69.528L63.4 69.81L64.062 70.388L65.148 70.096Z" fill="#263238"/>
<path d="M65.8021 70.67L65.3281 70.254L64.2421 70.546L64.7121 70.958L65.8021 70.67Z" fill="#263238"/>
<path d="M69.1 69.032L68.498 68.506L67.4 68.786L68.014 69.324L69.1 69.032Z" fill="#263238"/>
<path d="M64.0621 70.388L63.8301 70.45L64.0101 70.608L64.2421 70.546L64.0621 70.388Z" fill="#263238"/>
<path d="M64.3161 69.368L63.7881 68.908L62.6901 69.188L63.2181 69.65L64.3161 69.368Z" fill="#263238"/>
<path d="M69.776 69.624L69.28 69.19L68.196 69.484L68.686 69.912L69.776 69.624Z" fill="#263238"/>
<path d="M62.5081 69.028L62.274 69.088L62.456 69.248L62.6901 69.188L62.5081 69.028Z" fill="#263238"/>
<path d="M67.2181 68.626L68.3161 68.346L67.7881 67.886L66.6901 68.166L67.2181 68.626Z" fill="#263238"/>
<path d="M67.296 71.976L66.76 71.506L65.676 71.8L66.242 72.296L67.296 71.976Z" fill="#263238"/>
<path d="M65.4441 71.862L64.3301 72.164L64.9421 72.69L66.0161 72.364L65.4441 71.862Z" fill="#263238"/>
<path d="M74.886 69.308L75.202 69.584L76.284 69.256L75.988 69.01L74.886 69.308Z" fill="#263238"/>
<path d="M65.4941 71.642L65.2621 71.704L65.4441 71.862L65.6761 71.8L65.4941 71.642Z" fill="#263238"/>
<path d="M69.122 67.544L68.024 67.826L68.55 68.286L69.648 68.006L69.122 67.544Z" fill="#263238"/>
<path d="M64.712 70.958L64.478 71.018L64.66 71.178L64.894 71.116L64.712 70.958Z" fill="#263238"/>
<path d="M63.606 68.748L63.08 68.286L61.98 68.568L62.508 69.028L63.606 68.748Z" fill="#263238"/>
<path d="M66.578 71.348L65.984 70.828L64.894 71.116L65.494 71.642L66.578 71.348Z" fill="#263238"/>
<path d="M59.912 68.376L60.372 68.772L61.564 68.468L61.104 68.066L59.912 68.376Z" fill="#263238"/>
<path d="M72.8401 69.024L73.3901 69.506L74.4741 69.212L73.9321 68.738L72.8401 69.024Z" fill="#263238"/>
<path d="M73.338 69.726L72.254 70.02L72.642 70.358L73.696 70.038L73.338 69.726Z" fill="#263238"/>
<path d="M74.6541 69.37L73.5701 69.664L73.9221 69.97L74.9761 69.652L74.6541 69.37Z" fill="#263238"/>
<path d="M75.2441 68.392L74.1641 68.676L74.7061 69.15L75.8001 68.854L75.2441 68.392Z" fill="#263238"/>
<path d="M61.7981 68.408L61.5641 68.468L61.7461 68.628L61.9801 68.568L61.7981 68.408Z" fill="#263238"/>
<path d="M69.392 70.794L68.308 71.088L68.802 71.522L69.856 71.202L69.392 70.794Z" fill="#263238"/>
<path d="M71.13 66.022L72.094 65.776L71.572 65.342L70.634 65.586L71.13 66.022Z" fill="#263238"/>
<path d="M72.024 70.082L70.938 70.376L71.362 70.746L72.416 70.426L72.024 70.082Z" fill="#263238"/>
<path d="M70.708 70.438L69.624 70.732L70.082 71.134L71.136 70.814L70.708 70.438Z" fill="#263238"/>
<path d="M63.526 71.476L64.146 72.006L65.262 71.704L64.66 71.178L63.526 71.476Z" fill="#263238"/>
<path d="M62.432 67.72L61.338 68.006L61.798 68.408L62.896 68.126L62.432 67.72Z" fill="#263238"/>
<path d="M60.558 68.932L61.094 69.39L62.274 69.088L61.746 68.628L60.558 68.932Z" fill="#263238"/>
<path d="M68.5761 71.59L68.0761 71.15L66.9921 71.444L67.5221 71.908L68.5761 71.59Z" fill="#263238"/>
<path d="M62.8721 70.914L63.3421 71.318L64.4781 71.018L64.0101 70.608L62.8721 70.914Z" fill="#263238"/>
<path d="M62 70.168L62.688 70.758L63.83 70.45L63.166 69.87L62 70.168Z" fill="#263238"/>
<path d="M61.28 69.55L61.814 70.008L62.982 69.71L62.456 69.248L61.28 69.55Z" fill="#263238"/>
<path d="M67.824 63.266L64 73.9L78.7 69.4L83.382 59.12C83.419 59.038 83.432 58.9471 83.4192 58.8579C83.4065 58.7688 83.3687 58.6852 83.3101 58.6168C83.2516 58.5484 83.1748 58.498 83.0887 58.4717C83.0026 58.4454 82.9108 58.4441 82.824 58.468L68.884 62.286C68.6417 62.3523 68.4188 62.476 68.2343 62.6466C68.0498 62.8171 67.9091 63.0296 67.824 63.266Z" fill="white" stroke="#263238" stroke-linecap="round" stroke-linejoin="round"/>
<path d="M75.506 65.236C75.706 65.694 75.36 66.274 74.748 66.53C74.136 66.786 73.486 66.622 73.294 66.164C73.102 65.706 73.44 65.126 74.052 64.87C74.664 64.614 75.314 64.778 75.506 65.236Z" fill="#263238"/>
<path d="M39.22 73.388L28.554 75.89L35.054 86.072L46.304 83.768L39.22 73.388Z" fill="white" stroke="#263238" stroke-linecap="round" stroke-linejoin="round"/>
<path d="M32 73.8L39.8 83.5L50.4 80.1L41.8 71.2L32 73.8Z" fill="white" stroke="#263238" stroke-linecap="round" stroke-linejoin="round"/>
<path d="M34.912 75.234L41.66 73.238" stroke="#263238" stroke-linecap="round" stroke-linejoin="round"/>
<path d="M35.95 76.168L42.698 74.172" stroke="#263238" stroke-linecap="round" stroke-linejoin="round"/>
<path d="M36.9879 77.102L43.7359 75.106" stroke="#263238" stroke-linecap="round" stroke-linejoin="round"/>
<path d="M38.026 78.036L44.776 76.042" stroke="#263238" stroke-linecap="round" stroke-linejoin="round"/>
<path d="M39.064 78.972L45.814 76.976" stroke="#263238" stroke-linecap="round" stroke-linejoin="round"/>
<path d="M40.1019 79.906L46.8519 77.91" stroke="#263238" stroke-linecap="round" stroke-linejoin="round"/>
<path d="M41.142 80.84L47.89 78.844" stroke="#263238" stroke-linecap="round" stroke-linejoin="round"/>
<path d="M44.4999 45.1L30.2999 48.2C30.2999 48.2 30.9999 59.4 32.1999 64C32.1999 64 33.4499 68.428 34.1619 69.8L47.5519 66.288C47.5519 66.288 45.5999 61.1 44.4999 45.1Z" fill="#263238" stroke="#263238" stroke-linecap="round" stroke-linejoin="round"/>
<path d="M54.4819 46.708C53.3779 45.722 52.0439 45.954 50.7099 45.432C49.7625 45.0825 48.7947 44.7906 47.8119 44.558L47.5779 44.504C47.5779 44.504 46.9979 43.286 45.9539 43.46C44.9099 43.634 40.5599 46.6 40.2119 47.4C39.8639 48.2 39.8639 55.928 39.9219 58.6C39.9599 60.416 40.3219 61.854 40.9899 62.846L39.9339 68.334L54.7139 64.4C54.7139 64.4 53.7039 63.88 53.6679 60.92C53.6679 60.348 53.8999 58.832 54.1919 57.092C54.3677 55.9402 54.426 54.7736 54.3659 53.61C54.8819 53.7907 55.3856 54.0045 55.8739 54.25C56.6859 54.65 61.4999 56.628 61.4999 56.628L62.8999 54.076C62.8999 54.076 55.5839 47.694 54.4819 46.708Z" fill="white" stroke="#263238" stroke-linecap="round" stroke-linejoin="round"/>
<path d="M17.934 74.066L85.3 56.5" stroke="#263238" stroke-linecap="round" stroke-linejoin="round"/>
<path d="M41.2419 58.046C41.2419 58.046 42.5839 54.89 43.2139 52.208" stroke="#263238" stroke-linecap="round" stroke-linejoin="round"/>
<path d="M40.77 59C40.77 59 43.214 56.554 43.924 54.108" stroke="#263238" stroke-linecap="round" stroke-linejoin="round"/>
<path d="M47.786 61.284C47.786 61.284 50.174 60.038 51.212 58.896" stroke="#263238" stroke-linecap="round" stroke-linejoin="round"/>
<path d="M43.5599 47.102C43.5599 47.102 43.6919 47.114 44.1599 48.042C44.6279 48.97 45.1999 50.478 45.1999 50.478L46.2439 49.434L47.2299 50.768" stroke="#263238" stroke-linecap="round" stroke-linejoin="round"/>
<path d="M49.756 45.862C49.756 45.862 50.188 46.36 50.536 47.462C50.884 48.564 50.884 48.796 50.884 48.796L49.484 48.506L49.252 50.478" stroke="#263238" stroke-linecap="round" stroke-linejoin="round"/>
<path d="M54.1339 50.246L54.3639 53.612L54.8879 49.318" stroke="#263238" stroke-linecap="round" stroke-linejoin="round"/>
<path d="M48.422 43.418L48 44.97C48.4118 45.8137 48.7078 46.7091 48.88 47.632C49.234 49.58 48.862 53.432 48.862 53.432C48.862 53.432 47.222 49.808 46.274 48.082C45.326 46.356 44.978 45.492 44.892 44.63C44.806 43.768 45.41 41.524 45.582 41.264C45.754 41.004 48.422 43.418 48.422 43.418Z" fill="white" stroke="#263238" stroke-linecap="round" stroke-linejoin="round"/>
<path d="M51.702 29.784C50.7383 28.9682 49.5731 28.4263 48.3283 28.2152C47.0834 28.0041 45.8047 28.1315 44.626 28.584C40.484 30.128 40.4 34.96 40.4 37.722C40.4 40.484 39.25 45.004 37.094 47.074C34.938 49.144 34.094 51.356 34.618 53.686C35.142 56.016 37.292 57.396 38.846 57.224C40.4 57.052 39.446 50.148 41.004 48.768C42.562 47.388 44.542 46.168 45.836 42.296C46.5771 41.3641 47.0802 40.2658 47.302 39.096C47.648 37.198 48.942 34.178 50.322 33.92C51.702 33.662 52.136 37.802 51.618 39.356C51.1 40.91 48.51 42.722 48.418 43.412C48.3294 43.943 48.1853 44.4632 47.988 44.964C47.988 44.964 49.488 45.89 52.13 46.164C52.5018 46.2108 52.8781 46.2108 53.25 46.164C53.25 46.164 53.87 45.65 55.6 42.8C57.3 40 55.698 33.04 53.8 31.4C51.902 29.76 51.702 29.784 51.702 29.784Z" fill="#263238" stroke="#263238" stroke-linecap="round" stroke-linejoin="round"/>
<path d="M37.6199 47.93C37.3401 48.0887 37.0509 48.2303 36.7539 48.354" stroke="white" stroke-linecap="round" stroke-linejoin="round"/>
<path d="M36.8839 47.332C36.8839 47.332 34.4839 48.668 34.5559 52.258C34.6178 53.7257 35.2007 55.1232 36.1999 56.2" stroke="white" stroke-linecap="round" stroke-linejoin="round"/>
<path d="M43.416 34.506C42.502 38.06 42.122 42.59 40.868 44.846C40.3145 45.7939 39.5643 46.6123 38.668 47.246" stroke="white" stroke-linecap="round" stroke-linejoin="round"/>
<path d="M52.0639 32.572C52.0639 32.572 52.2639 31.494 50.9839 30.414C49.7659 29.388 45.1939 30.014 43.8199 33.202" stroke="white" stroke-linecap="round" stroke-linejoin="round"/>
<path d="M48.53 28.6C47.5325 28.2388 46.4366 28.2602 45.454 28.66C44.2596 29.111 43.2156 29.888 42.4406 30.9027C41.6656 31.9173 41.1908 33.129 41.07 34.4C40.8 36.828 41.138 40.6 40.058 42.964" stroke="white" stroke-linecap="round" stroke-linejoin="round"/>
<path d="M50.242 29.6C50.0293 29.4066 49.7982 29.2345 49.552 29.086" stroke="white" stroke-linecap="round" stroke-linejoin="round"/>
<path d="M55.5699 42.15C55.6379 41.8137 55.6866 41.4738 55.7159 41.132" stroke="white" stroke-linecap="round" stroke-linejoin="round"/>
<path d="M55.746 40.2C55.644 36.014 52.468 33.452 52.468 33.452" stroke="white" stroke-linecap="round" stroke-linejoin="round"/>
<path d="M51.96 33.148C51.96 33.148 53.428 36.348 52.738 38.844C52.048 41.34 50.58 43.418 49.538 43.936C48.496 44.454 45.828 42.296 45.828 42.296C45.828 42.296 46.69 40.398 46.69 38.412C46.69 36.426 47.382 34.012 48.934 33.236C49.4037 33.0091 49.9161 32.8839 50.4376 32.8688C50.9591 32.8536 51.4779 32.9488 51.96 33.148Z" fill="white" stroke="#263238" stroke-linecap="round" stroke-linejoin="round"/>
<path d="M50.2 38.2C50.153 38.5683 50.1802 38.9423 50.28 39.3C50.446 39.758 50.862 40.048 50.53 40.132C50.2133 40.1821 49.8919 40.1961 49.572 40.174" stroke="#263238" stroke-linecap="round" stroke-linejoin="round"/>
<path d="M49.0559 41.49C49.3526 41.6576 49.6988 41.7156 50.0339 41.654" stroke="#263238" stroke-linecap="round" stroke-linejoin="round"/>
<path d="M48.7799 38.214C48.7799 38.444 48.6779 38.63 48.5519 38.63C48.4259 38.63 48.3219 38.444 48.3219 38.214C48.3219 37.984 48.4239 37.798 48.5519 37.798C48.6799 37.798 48.7799 37.984 48.7799 38.214Z" fill="#263238"/>
<path d="M51.636 38.084C51.636 38.312 51.534 38.5 51.408 38.5C51.282 38.5 51.178 38.312 51.178 38.084C51.178 37.856 51.282 37.668 51.408 37.668C51.534 37.668 51.636 37.854 51.636 38.084Z" fill="#263238"/>
<path d="M52.276 36.862C52.2402 36.8712 52.2025 36.8702 52.1672 36.8593C52.1319 36.8483 52.1003 36.8278 52.076 36.8C52.0227 36.7224 51.9522 36.6582 51.8699 36.6124C51.7877 36.5666 51.696 36.5404 51.602 36.536C51.3907 36.5791 51.2043 36.7024 51.082 36.88C51.0517 36.9238 51.0054 36.9537 50.953 36.9633C50.9007 36.9728 50.8467 36.9612 50.803 36.931C50.7592 36.9008 50.7293 36.8544 50.7197 36.8021C50.7101 36.7497 50.7217 36.6958 50.752 36.652C50.766 36.632 51.094 36.164 51.58 36.136C51.7355 36.1346 51.8891 36.1701 52.0282 36.2396C52.1673 36.3092 52.2878 36.4107 52.38 36.536C52.4147 36.5761 52.4321 36.6283 52.4283 36.6811C52.4246 36.734 52.4 36.7832 52.36 36.818C52.3357 36.8388 52.3069 36.8539 52.276 36.862Z" fill="#263238"/>
<path d="M49.1679 37C49.114 37.0009 49.0615 36.9824 49.0199 36.948C48.3119 36.388 47.7499 36.874 47.7259 36.894C47.6799 36.9344 47.6202 36.9559 47.559 36.954C47.4977 36.9521 47.4395 36.9271 47.3959 36.884C47.3751 36.8631 47.3587 36.8382 47.3479 36.8107C47.3371 36.7833 47.3322 36.7538 47.3333 36.7244C47.3344 36.6949 47.3416 36.6659 47.3545 36.6394C47.3673 36.6128 47.3855 36.5892 47.4079 36.57C47.6783 36.347 48.0196 36.2282 48.37 36.2352C48.7204 36.2421 49.0567 36.3744 49.3179 36.608C49.3413 36.6259 49.3607 36.6484 49.375 36.6741C49.3893 36.6998 49.3981 36.7282 49.4009 36.7574C49.4037 36.7867 49.4005 36.8163 49.3914 36.8442C49.3822 36.8722 49.3675 36.898 49.3479 36.92C49.3253 36.9453 49.2976 36.9655 49.2665 36.9793C49.2355 36.9931 49.2019 37.0001 49.1679 37Z" fill="#263238"/>
<path d="M49.6439 38.32C49.6443 38.5709 49.5703 38.8162 49.4312 39.025C49.2921 39.2338 49.0942 39.3966 48.8625 39.4929C48.6309 39.5892 48.3759 39.6146 48.1298 39.5659C47.8837 39.5172 47.6575 39.3966 47.48 39.2193C47.3025 39.042 47.1815 38.8161 47.1324 38.5701C47.0833 38.3241 47.1083 38.069 47.2042 37.8372C47.3002 37.6054 47.4627 37.4072 47.6712 37.2678C47.8798 37.1284 48.125 37.054 48.3759 37.054C48.7119 37.054 49.0341 37.1873 49.2718 37.4247C49.5096 37.662 49.6434 37.984 49.6439 38.32Z" stroke="#263238" stroke-linecap="round" stroke-linejoin="round"/>
<path d="M47.132 38.458L46.74 38.294" stroke="#263238" stroke-linecap="round" stroke-linejoin="round"/>
<path d="M52.8819 38.096C52.8819 38.3469 52.8075 38.5921 52.6681 38.8007C52.5287 39.0092 52.3305 39.1718 52.0987 39.2677C51.8669 39.3636 51.6119 39.3886 51.3658 39.3395C51.1198 39.2904 50.8939 39.1694 50.7166 38.9919C50.5394 38.8144 50.4188 38.5882 50.3701 38.3421C50.3214 38.096 50.3468 37.841 50.443 37.6094C50.5393 37.3777 50.7022 37.1798 50.9109 37.0407C51.1197 36.9016 51.3651 36.8276 51.6159 36.828C51.9519 36.8285 52.2739 36.9624 52.5113 37.2001C52.7486 37.4378 52.8819 37.7601 52.8819 38.096Z" stroke="#263238" stroke-linecap="round" stroke-linejoin="round"/>
<path d="M49.6439 38.32C49.6833 38.2561 49.7399 38.2046 49.8072 38.1713C49.8745 38.138 49.9498 38.1244 50.0245 38.1319C50.0991 38.1394 50.1702 38.1678 50.2295 38.2138C50.2889 38.2598 50.334 38.3215 50.3599 38.392" stroke="#263238" stroke-linecap="round" stroke-linejoin="round"/>
<path d="M40.9199 62.58C40.9199 62.58 41.3979 58.78 41.5999 56.4C41.8019 54.02 42.0159 48.694 40.5999 48.1C39.1839 47.506 37.6159 47.942 36.8759 51.634C36.1359 55.326 36.0759 63.7 36.0759 63.7L40.9199 62.58Z" fill="white" stroke="#263238" stroke-linecap="round" stroke-linejoin="round"/>
<path d="M41.702 64.622C41.702 64.622 48.338 69.4 48.976 69.4C49.614 69.4 51.76 68.646 52.63 68.878C53.5 69.11 54.43 70.908 54.604 71.024C54.778 71.14 55.068 71.488 54.778 71.662C54.488 71.836 52.746 71.082 52.456 71.082C52.2936 71.0863 52.1332 71.0462 51.992 70.966L51.238 70.792C51.238 70.792 53.326 71.836 53.5 71.894C53.674 71.952 53.56 72.184 52.978 72.184C52.396 72.184 51.702 71.836 51.296 71.72C50.8728 71.5488 50.4181 71.4697 49.962 71.488C49.15 71.488 47.642 70.676 47.642 70.676C47.642 70.676 41.042 68.576 39.528 68.112C38.014 67.648 36.704 66.444 36.646 66.27C36.588 66.096 40.136 64.68 41.702 64.622Z" fill="white" stroke="#263238" stroke-linecap="round" stroke-linejoin="round"/>
<path d="M51.72 69.866C51.72 69.866 53.942 70.588 54.604 71.03" stroke="#263238" stroke-linecap="round" stroke-linejoin="round"/>
<path d="M52 69.252C52 69.252 53.276 69.394 53.844 69.914" stroke="#263238" stroke-linecap="round" stroke-linejoin="round"/>
<path d="M40.65 61.286C40.65 61.286 36.622 62.064 36.05 62.47C35.478 62.876 35.596 63.578 35.77 63.984C35.944 64.39 35.944 66.42 36.582 66.884C36.782 67.036 40.758 65.666 41.512 65.484C42.266 65.302 42.398 64.236 42.112 63.192C41.826 62.148 41.81 60.648 40.65 61.286Z" fill="white" stroke="#263238" stroke-linecap="round" stroke-linejoin="round"/>
<path d="M59.412 52.16C59.412 52.16 58.252 54.016 58.194 55.004C58.136 55.992 58.368 56.048 58.774 56.338C59.18 56.628 61.036 57.44 62.254 57.556C63.472 57.672 64.632 55.12 64.69 54.308C64.748 53.496 62.95 52.218 61.674 51.696C60.398 51.174 59.47 51.696 59.412 52.16Z" fill="white" stroke="#263238" stroke-linecap="round" stroke-linejoin="round"/>
<path d="M57.2 47.114C57.2 47.114 64.624 53.378 65.436 54.714C66.248 56.05 64.856 57.208 63.812 57.266C62.768 57.324 61.956 56.222 60.912 55.066C59.868 53.91 56 47.81 56 47.81L57.2 47.114Z" fill="white" stroke="#263238" stroke-linecap="round" stroke-linejoin="round"/>
<path d="M56.048 44.388C56.048 44.388 55.062 47.288 55.062 47.752C55.062 48.216 55.7 48.506 56.28 48.506C56.86 48.506 57.382 47.694 57.73 46.706C58.078 45.718 58.484 44.506 58.078 44.212C57.672 43.918 56.164 44.156 56.048 44.388Z" fill="white" stroke="#263238" stroke-linecap="round" stroke-linejoin="round"/>
<path d="M55.8159 45.258L58.0779 45.49" stroke="#263238" stroke-linecap="round" stroke-linejoin="round"/>
<path d="M55.584 46.36L57.73 46.708" stroke="#263238" stroke-linecap="round" stroke-linejoin="round"/>
<path d="M55.236 47.172L57.208 47.636" stroke="#263238" stroke-linecap="round" stroke-linejoin="round"/>
<path d="M57.1399 43.478C57.0097 43.4739 56.88 43.4599 56.7519 43.436C56.2979 43.348 55.2759 43.2 55.2339 43.614C55.1799 44.148 55.2339 44.548 55.6139 44.548H57.2919C57.7799 44.548 57.9419 44.214 57.8339 43.814C57.7599 43.536 57.3699 43.484 57.1399 43.478Z" fill="white" stroke="#263238" stroke-linecap="round" stroke-linejoin="round"/>
<path d="M48 44.97C47.9655 45.4681 47.9655 45.9679 48 46.466" stroke="#263238" stroke-miterlimit="10"/>
<path d="M54.356 47.708H52.568C52.3058 47.7079 52.0525 47.6134 51.8542 47.442C51.6559 47.2705 51.5259 47.0334 51.488 46.774L51.074 42.748H55.85L55.438 46.774C55.3996 47.0335 55.2692 47.2707 55.0706 47.4421C54.872 47.6136 54.6184 47.7079 54.356 47.708Z" fill="white" stroke="#263238" stroke-linecap="round" stroke-linejoin="round"/>
<path opacity="0.37" d="M53.5679 42.658C53.5179 42.414 53.2579 42.138 52.9979 41.79C52.5239 41.158 60.2559 41.552 61.1979 41.238C62.1399 40.924 60.9619 40.922 60.7979 40.212C60.6339 39.502 62.6919 40.29 64.7419 40.132C66.7919 39.974 66.0839 39.422 63.4799 38.87C60.8759 38.318 58.1939 39.106 59.1419 39.974C60.0899 40.842 58.6679 40.528 55.5119 40.528C52.3559 40.528 52.1979 41.08 51.8839 42.184C51.8325 42.3615 51.7392 42.524 51.6119 42.658H53.5679Z" fill="white"/>
</svg>
